<svg xmlns="http://www.w3.org/2000/svg" version="1.1" xmlns:xlink="http://www.w3.org/1999/xlink" xmlns:svgjs="http://svgjs.com/svgjs" width="1440" height="560" preserveAspectRatio="none" viewBox="0 0 1440 560"><g mask="url(&quot;#SvgjsMask1000&quot;)" fill="none"><rect width="1440" height="560" x="0" y="0" fill="#0e2a47"></rect><path d="M850.27 666.89C978.33 656.28 1065.83 397.2 1287.52 396.69 1509.21 396.18 1611.21 518.72 1724.77 519.89" stroke="rgba(51,121,194,0.58)" stroke-width="2"></path><path d="M621.18 635.45C737.76 590.02 692.43 235.58 921.25 234.9 1150.07 234.22 1360.3 465.95 1521.39 470.1" stroke="rgba(51,121,194,0.58)" stroke-width="2"></path><path d="M899.34 652.24C1037.62 618.62 1058.32 270.5 1297.86 245.77 1537.39 221.04 1591.24 113.16 1696.37 111.37" stroke="rgba(51,121,194,0.58)" stroke-width="2"></path><path d="M494.79 598.57C614.61 586.2 687.94 329.58 893.49 328.05 1099.04 326.52 1092.84 398.05 1292.19 398.05 1491.54 398.05 1589.69 328.31 1690.89 328.05" stroke="rgba(51,121,194,0.58)" stroke-width="2"></path><path d="M257.41 640.25C443.59 622.8 567.86 232.57 884.25 232.16 1200.63 231.75 1343.75 463.53 1511.08 467.36" stroke="rgba(51,121,194,0.58)" stroke-width="2"></path></g><defs><mask id="SvgjsMask1000"><rect width="1440" height="560" fill="#ffffff"></rect></mask></defs></svg>