<svg xmlns="http://www.w3.org/2000/svg" version="1.1" xmlns:xlink="http://www.w3.org/1999/xlink" xmlns:svgjs="http://svgjs.com/svgjs" width="1440" height="250" preserveAspectRatio="none" viewBox="0 0 1440 250"><g mask="url(&quot;#SvgjsMask1000&quot;)" fill="none"><rect width="1440" height="250" x="0" y="0" fill="#0e2a47"></rect><path d="M23 250L273 0L348 0L98 250z" fill="url(#SvgjsLinearGradient1001)"></path><path d="M252.60000000000002 250L502.6 0L853.6 0L603.6 250z" fill="url(#SvgjsLinearGradient1001)"></path><path d="M509.20000000000005 250L759.2 0L814.7 0L564.7 250z" fill="url(#SvgjsLinearGradient1001)"></path><path d="M721.8000000000001 250L971.8000000000001 0L1129.3000000000002 0L879.3000000000001 250z" fill="url(#SvgjsLinearGradient1001)"></path><path d="M1423 250L1173 0L964.5 0L1214.5 250z" fill="url(#SvgjsLinearGradient1002)"></path><path d="M1160.4 250L910.4000000000001 0L871.4000000000001 0L1121.4 250z" fill="url(#SvgjsLinearGradient1002)"></path><path d="M953.8 250L703.8 0L585.3 0L835.3 250z" fill="url(#SvgjsLinearGradient1002)"></path><path d="M683.1999999999999 250L433.19999999999993 0L272.69999999999993 0L522.6999999999999 250z" fill="url(#SvgjsLinearGradient1002)"></path><path d="M1230.2353683433091 250L1440 40.235368343309204L1440 250z" fill="url(#SvgjsLinearGradient1001)"></path><path d="M0 250L209.7646316566908 250L 0 40.235368343309204z" fill="url(#SvgjsLinearGradient1002)"></path></g><defs><mask id="SvgjsMask1000"><rect width="1440" height="250" fill="#ffffff"></rect></mask><linearGradient x1="0%" y1="100%" x2="100%" y2="0%" id="SvgjsLinearGradient1001"><stop stop-color="rgba(15, 70, 185, 0.2)" offset="0"></stop><stop stop-opacity="0" stop-color="rgba(15, 70, 185, 0.2)" offset="0.66"></stop></linearGradient><linearGradient x1="100%" y1="100%" x2="0%" y2="0%" id="SvgjsLinearGradient1002"><stop stop-color="rgba(15, 70, 185, 0.2)" offset="0"></stop><stop stop-opacity="0" stop-color="rgba(15, 70, 185, 0.2)" offset="0.66"></stop></linearGradient></defs></svg>