<svg xmlns="http://www.w3.org/2000/svg" version="1.1" xmlns:xlink="http://www.w3.org/1999/xlink" xmlns:svgjs="http://svgjs.com/svgjs" width="1440" height="560" preserveAspectRatio="none" viewBox="0 0 1440 560"><g mask="url(&quot;#SvgjsMask1002&quot;)" fill="none"><rect width="1440" height="560" x="0" y="0" fill="url(#SvgjsLinearGradient1003)"></rect><path d="M1440 0L945.72 0L1440 276.47z" fill="rgba(255, 255, 255, .1)"></path><path d="M945.72 0L1440 276.47L1440 405.80000000000007L913.01 0z" fill="rgba(255, 255, 255, .075)"></path><path d="M913.01 0L1440 405.80000000000007L1440 471.50000000000006L490.28999999999996 0z" fill="rgba(255, 255, 255, .05)"></path><path d="M490.28999999999996 0L1440 471.50000000000006L1440 510.99000000000007L417.35999999999996 0z" fill="rgba(255, 255, 255, .025)"></path><path d="M0 560L488.43 560L0 422.78z" fill="rgba(0, 0, 0, .1)"></path><path d="M0 422.78L488.43 560L721.01 560L0 214.15999999999997z" fill="rgba(0, 0, 0, .075)"></path><path d="M0 214.15999999999997L721.01 560L879.3 560L0 83.97999999999996z" fill="rgba(0, 0, 0, .05)"></path><path d="M0 83.97999999999996L879.3 560L1147.79 560L0 45.18999999999996z" fill="rgba(0, 0, 0, .025)"></path></g><defs><mask id="SvgjsMask1002"><rect width="1440" height="560" fill="#ffffff"></rect></mask><linearGradient x1="15.28%" y1="-39.29%" x2="84.72%" y2="139.29%" gradientUnits="userSpaceOnUse" id="SvgjsLinearGradient1003"><stop stop-color="#0e2a47" offset="0"></stop><stop stop-color="#00459e" offset="1"></stop></linearGradient></defs></svg>