<svg id="ei39CYP8Kyw1" xmlns="http://www.w3.org/2000/svg" xmlns:xlink="http://www.w3.org/1999/xlink" viewBox="0 0 1041.320000 554.170000" shape-rendering="geometricPrecision" text-rendering="geometricPrecision"><defs><linearGradient id="ei39CYP8Kyw44-fill" x1="597.750000" y1="725.440000" x2="597.750000" y2="347.690000" spreadMethod="pad" gradientUnits="userSpaceOnUse"><stop id="ei39CYP8Kyw44-fill-0" offset="0%" stop-color="rgba(128,128,128,0.25)"/><stop id="ei39CYP8Kyw44-fill-1" offset="54%" stop-color="rgba(128,128,128,0.12)"/><stop id="ei39CYP8Kyw44-fill-2" offset="100%" stop-color="rgba(128,128,128,0.1)"/></linearGradient></defs><path id="ei39CYP8Kyw2" d="M1040.820000,611.120000Q1039.080000,614.870000,1037.350000,618.520000Q1034.650000,624.190000,1032.020000,629.640000C1031.240000,631.250000,1030.460000,632.830000,1029.700000,634.410000C1021.100000,651.980000,1013.070000,667.520000,1006.250000,680.300000C993.645041,703.886508,969.181946,718.723082,942.440000,719L790.790000,720.650000L789.190000,720.650000L776.190000,720.790000L765.070000,720.910000L730.970000,721.280000L729.590000,721.280000L712.230000,721.470000L711.700000,721.470000L604.700000,722.630000L509.190000,723.630000L498.080000,723.750000L429.080000,724.500000L429,724.500000L384.250000,724.980000L383.770000,724.980000L242.270000,726.510000L199.940000,726.970000C190.906695,727.072056,181.911464,725.783650,173.270000,723.150000C158.232098,718.607473,144.717404,710.050587,134.180000,698.400000C116,678.370000,102.750000,655,93.850000,629.640000Q91.920000,624.150000,90.250000,618.520000C59.440000,514.370000,97,380,164.600000,290.080000Q168.850000,284.440000,173.240000,279.080000L173.310000,279C194.100000,253.480000,217.410000,232.160000,242.240000,217C286.240000,190.090000,334.990000,182.510000,382.940000,205.100000C423.510000,224.220000,461.390000,233.210000,498.110000,235.650000C501.820000,235.890000,505.530000,236.070000,509.220000,236.180000C593.450000,238.830000,672.390000,208.480000,765.090000,188.890000C768.780000,188.110000,772.480000,187.340000,776.210000,186.610000C842.340000,173.450000,915.700000,166.510000,1002.940000,181.100000C1012.003582,182.580662,1020.947253,184.719657,1029.700000,187.500000Q1035.470000,189.360000,1040.820000,191.500000C1082.460000,208.440000,1105.170000,239.740000,1114.820000,278.960000Q1116.190000,284.420000,1117.190000,290.070000C1134.300000,384.410000,1084.190000,518.230000,1040.820000,611.120000Z" transform="matrix(1 0 0 1 -79.34000000000000 -172.91000000000000)" opacity="0.1" fill="rgb(108,99,255)" stroke="none" stroke-width="1"/><g id="ei39CYP8Kyw3" opacity="0.1"><path id="ei39CYP8Kyw4" d="M242.240000,217L242.240000,726.620000L199.910000,727.080000C190.876695,727.182056,181.881464,725.893650,173.240000,723.260000L173.240000,279L173.310000,279C194.100000,253.450000,217.410000,232.130000,242.240000,217Z" transform="matrix(1 0 0 1 -79.34000000000000 -172.91000000000000)" fill="rgb(108,99,255)" stroke="none" stroke-width="1"/><path id="ei39CYP8Kyw5" d="M1117.240000,290.080000L164.600000,290.080000Q168.850000,284.440000,173.240000,279.080000L173.240000,279L1114.870000,279Q1116.240000,284.430000,1117.240000,290.080000Z" transform="matrix(1 0 0 1 -79.34000000000000 -172.91000000000000)" fill="rgb(108,99,255)" stroke="none" stroke-width="1"/><path id="ei39CYP8Kyw6" d="M1040.820000,191.510000L1040.820000,618.510000L1037.350000,618.510000Q1034.650000,624.180000,1032.020000,629.630000C1031.240000,631.240000,1030.460000,632.820000,1029.700000,634.400000L1029.700000,187.470000Q1035.470000,189.330000,1040.820000,191.510000Z" transform="matrix(1 0 0 1 -79.34000000000000 -172.91000000000000)" fill="rgb(108,99,255)" stroke="none" stroke-width="1"/><path id="ei39CYP8Kyw7" d="M776.210000,186.580000L776.210000,720.830000L765.090000,720.950000L765.090000,188.860000C768.780000,188.080000,772.480000,187.310000,776.210000,186.580000Z" transform="matrix(1 0 0 1 -79.34000000000000 -172.91000000000000)" fill="rgb(108,99,255)" stroke="none" stroke-width="1"/><path id="ei39CYP8Kyw8" d="M509.220000,236.150000L509.220000,723.730000L498.110000,723.850000L498.110000,235.620000C501.820000,235.860000,505.530000,236,509.220000,236.150000Z" transform="matrix(1 0 0 1 -79.34000000000000 -172.91000000000000)" fill="rgb(108,99,255)" stroke="none" stroke-width="1"/><path id="ei39CYP8Kyw9" d="M1037.350000,618.520000Q1034.650000,624.190000,1032.020000,629.640000L93.850000,629.640000Q91.920000,624.150000,90.250000,618.520000Z" transform="matrix(1 0 0 1 -79.34000000000000 -172.91000000000000)" fill="rgb(108,99,255)" stroke="none" stroke-width="1"/></g><rect id="ei39CYP8Kyw10" width="19" height="57.660000" rx="0" ry="0" transform="matrix(1 0 0 1 211.59999999999999 265.82999999999998)" fill="rgb(63,61,86)" stroke="none" stroke-width="1"/><rect id="ei39CYP8Kyw11" width="19" height="61" rx="0" ry="0" transform="matrix(1 0 0 1 722.92999999999995 262.82999999999998)" fill="rgb(63,61,86)" stroke="none" stroke-width="1"/><polygon id="ei39CYP8Kyw12" points="863.100000,533.650000 863.100000,546.650000 711.180000,548.050000 709.560000,548.080000 651.820000,548.610000 650.440000,548.630000 632.890000,548.780000 632.370000,548.780000 525.390000,549.770000 349.780000,551.400000 349.630000,551.400000 304.980000,551.820000 304.500000,551.830000 106.100000,553.650000 106.100000,538.650000 152.750000,510.650000 246.350000,509.870000 248.350000,509.860000 249.010000,509.850000 251.010000,509.820000 295.950000,509.450000 297.960000,509.440000 298.600000,509.430000 300.600000,509.420000 315.010000,509.300000 315.390000,509.290000 350.940000,508.990000 351.230000,508.990000 628.630000,506.650000 635.420000,506.600000 636.100000,506.600000 641.280000,506.550000 678.930000,506.240000 680.930000,506.210000 682.780000,506.190000 683.740000,506.190000 695.450000,506.100000 697.770000,506.070000 700.880000,506.050000 710.630000,505.960000 726.100000,505.830000 728.100000,505.810000 731.580000,505.790000 732.230000,505.790000 806.940000,505.150000 863.100000,533.650000" fill="rgb(101,97,125)" stroke="none" stroke-width="1"/><polygon id="ei39CYP8Kyw13" points="863.100000,533.650000 863.100000,546.650000 711.180000,548.050000 709.560000,548.080000 651.820000,548.610000 650.440000,548.630000 632.890000,548.780000 632.370000,548.780000 525.390000,549.770000 349.780000,551.400000 349.630000,551.400000 304.980000,551.820000 304.500000,551.830000 106.100000,553.650000 106.100000,538.650000 152.750000,510.650000 246.350000,509.870000 248.350000,509.860000 249.010000,509.850000 251.010000,509.820000 295.950000,509.450000 297.960000,509.440000 298.600000,509.430000 300.600000,509.420000 315.010000,509.300000 315.390000,509.290000 350.940000,508.990000 351.230000,508.990000 628.630000,506.650000 635.420000,506.600000 636.100000,506.600000 641.280000,506.550000 678.930000,506.240000 680.930000,506.210000 682.780000,506.190000 683.740000,506.190000 695.450000,506.100000 697.770000,506.070000 700.880000,506.050000 710.630000,505.960000 726.100000,505.830000 728.100000,505.810000 731.580000,505.790000 732.230000,505.790000 806.940000,505.150000 863.100000,533.650000" opacity="0.2" fill="rgb(0,0,0)" stroke="none" stroke-width="1"/><path id="ei39CYP8Kyw14" d="M375.440000,656.570000L375.440000,681.060000C375.441102,683.427620,374.078640,685.584202,371.940000,686.600000C371.159809,686.978289,370.306897,687.182988,369.440000,687.200000L334.540000,687.940000C333.607938,687.962355,332.683491,687.767194,331.840000,687.370000C329.662514,686.371953,328.267434,684.195316,328.270000,681.800000L328.270000,656.570000Z" transform="matrix(1 0 0 1 -79.34000000000000 -172.91000000000000)" fill="rgb(63,61,86)" stroke="none" stroke-width="1"/><path id="ei39CYP8Kyw15" d="M375.440000,656.570000L375.440000,681.060000C375.441102,683.427620,374.078640,685.584202,371.940000,686.600000C371.159809,686.978289,370.306897,687.182988,369.440000,687.200000L334.540000,687.940000C333.607938,687.962355,332.683491,687.767194,331.840000,687.370000C329.662514,686.371953,328.267434,684.195316,328.270000,681.800000L328.270000,656.570000Z" transform="matrix(1 0 0 1 -79.34000000000000 -172.91000000000000)" opacity="0.1" fill="rgb(0,0,0)" stroke="none" stroke-width="1"/><path id="ei39CYP8Kyw16" d="M377.440000,656.570000L377.440000,681.060000C377.441102,683.427620,376.078640,685.584202,373.940000,686.600000C373.159809,686.978289,372.306897,687.182988,371.440000,687.200000L336.540000,687.940000C335.607938,687.962355,334.683491,687.767194,333.840000,687.370000C331.662514,686.371953,330.267434,684.195316,330.270000,681.800000L330.270000,656.570000Z" transform="matrix(1 0 0 1 -79.34000000000000 -172.91000000000000)" fill="rgb(63,61,86)" stroke="none" stroke-width="1"/><rect id="ei39CYP8Kyw17" width="47.170000" height="31.500000" rx="0" ry="0" transform="matrix(1 0 0 1 680.92999999999995 483.66000000000003)" fill="rgb(63,61,86)" stroke="none" stroke-width="1"/><rect id="ei39CYP8Kyw18" width="47.170000" height="31.500000" rx="0" ry="0" transform="matrix(1 0 0 1 680.92999999999995 483.66000000000003)" opacity="0.1" fill="rgb(0,0,0)" stroke="none" stroke-width="1"/><rect id="ei39CYP8Kyw19" width="47.170000" height="31.500000" rx="0" ry="0" transform="matrix(1 0 0 1 678.92999999999995 483.66000000000003)" fill="rgb(63,61,86)" stroke="none" stroke-width="1"/><polygon id="ei39CYP8Kyw20" points="230.600000,265.820000 230.600000,271.550000 211.600000,271.060000 211.600000,265.820000 230.600000,265.820000" opacity="0.1" fill="rgb(0,0,0)" stroke="none" stroke-width="1"/><path id="ei39CYP8Kyw21" d="M435,277.310000L412.170000,441.310000C411.870305,443.478879,409.988764,445.076251,407.800000,445.020000L225,440.280000L221.530000,440.190000C220.308078,440.161037,219.156221,439.613436,218.362354,438.684077C217.568487,437.754719,217.207636,436.531433,217.370000,435.320000L243,263.640000C243.342505,261.435464,245.314130,259.859032,247.540000,260.010000L431,272.430000C432.196670,272.499359,433.309745,273.066213,434.069621,273.993261C434.829497,274.920310,435.166862,276.122992,435,277.310000Z" transform="matrix(1 0 0 1 -79.34000000000000 -172.91000000000000)" fill="rgb(101,97,125)" stroke="none" stroke-width="1"/><polygon id="ei39CYP8Kyw22" points="175.930000,99.160000 156.600000,250.490000 324.600000,255.820000 345.260000,109.820000 175.930000,99.160000" fill="rgb(108,99,255)" stroke="none" stroke-width="1"/><rect id="ei39CYP8Kyw23" width="204.670000" height="173.330000" rx="5.330000" ry="5.330000" transform="matrix(1 0 0 1 384.60000000000002 96.81999999999999)" fill="rgb(101,97,125)" stroke="none" stroke-width="1"/><rect id="ei39CYP8Kyw24" width="186" height="144.330000" rx="0" ry="0" transform="matrix(1 0 0 1 394.25999999999999 108.48999999999999)" fill="rgb(108,99,255)" stroke="none" stroke-width="1"/><polygon id="ei39CYP8Kyw25" points="741.930000,262.820000 741.930000,266.610000 722.930000,267 722.930000,262.820000 741.930000,262.820000" opacity="0.1" fill="rgb(0,0,0)" stroke="none" stroke-width="1"/><path id="ei39CYP8Kyw26" d="M907,432.530000C907.054719,433.367206,906.765536,434.190503,906.199292,434.809596C905.633048,435.428689,904.838754,435.789994,904,435.810000L716.800000,439.680000C715.186966,439.713326,713.821565,438.496244,713.670000,436.890000L697.580000,269.610000C697.499725,268.771316,697.766519,267.936358,698.318237,267.299615C698.869956,266.662872,699.658430,266.279934,700.500000,266.240000L886.280000,257L888.280000,256.900000C889.932561,256.812932,891.356751,258.051358,891.500000,259.700000Z" transform="matrix(1 0 0 1 -79.34000000000000 -172.91000000000000)" fill="rgb(101,97,125)" stroke="none" stroke-width="1"/><polygon id="ei39CYP8Kyw27" points="628.930000,103.160000 798.600000,94.820000 812.930000,246.820000 644.600000,250.820000 628.930000,103.160000" fill="rgb(108,99,255)" stroke="none" stroke-width="1"/><path id="ei39CYP8Kyw28" d="M907,432.530000C907.054719,433.367206,906.765536,434.190503,906.199292,434.809596C905.633048,435.428689,904.838754,435.789994,904,435.810000L886.280000,257L888.280000,256.900000C889.932561,256.812932,891.356751,258.051358,891.500000,259.700000Z" transform="matrix(1 0 0 1 -79.34000000000000 -172.91000000000000)" opacity="0.1" fill="rgb(0,0,0)" stroke="none" stroke-width="1"/><path id="ei39CYP8Kyw29" d="M247.570000,260L225,440.280000L221.530000,440.190000C220.308078,440.161037,219.156221,439.613436,218.362354,438.684077C217.568487,437.754719,217.207636,436.531433,217.370000,435.320000L243,263.640000C243.338615,261.419176,245.329705,259.833275,247.570000,260Z" transform="matrix(1 0 0 1 -79.34000000000000 -172.91000000000000)" opacity="0.1" fill="rgb(0,0,0)" stroke="none" stroke-width="1"/><rect id="ei39CYP8Kyw30" width="19" height="17.080000" rx="0" ry="0" transform="matrix(1 0 0 1 211.59999999999999 306.41000000000003)" opacity="0.1" fill="rgb(0,0,0)" stroke="none" stroke-width="1"/><polygon id="ei39CYP8Kyw31" points="298.100000,483.650000 298.100000,488.620000 250.930000,489.880000 250.930000,483.650000 298.100000,483.650000" opacity="0.1" fill="rgb(0,0,0)" stroke="none" stroke-width="1"/><path id="ei39CYP8Kyw32" d="M460.690000,485.270000L460.690000,653.470000C460.664837,655.602461,458.971115,657.340176,456.840000,657.420000L265.190000,662.520000L265.140000,662.520000C262.969742,662.493037,261.216963,660.740258,261.190000,658.570000L261.190000,485.270000C261.216963,483.099742,262.969742,481.346963,265.140000,481.320000L456.740000,481.320000C458.910258,481.346963,460.663037,483.099742,460.690000,485.270000Z" transform="matrix(1 0 0 1 -79.34000000000000 -172.91000000000000)" fill="rgb(101,97,125)" stroke="none" stroke-width="1"/><path id="ei39CYP8Kyw33" d="M265.190000,481.320000L265.190000,662.520000L265.140000,662.520000C262.969742,662.493037,261.216963,660.740258,261.190000,658.570000L261.190000,485.270000C261.216963,483.099742,262.969742,481.346963,265.140000,481.320000Z" transform="matrix(1 0 0 1 -79.34000000000000 -172.91000000000000)" opacity="0.1" fill="rgb(0,0,0)" stroke="none" stroke-width="1"/><polygon id="ei39CYP8Kyw34" points="194.600000,319.150000 372.100000,319.150000 372.100000,467.400000 194.600000,471.400000 194.600000,319.150000" fill="rgb(212,223,236)" stroke="none" stroke-width="1"/><rect id="ei39CYP8Kyw35" width="19" height="17.420000" rx="0" ry="0" transform="matrix(1 0 0 1 722.92999999999995 306.41000000000003)" opacity="0.1" fill="rgb(0,0,0)" stroke="none" stroke-width="1"/><polygon id="ei39CYP8Kyw36" points="726.100000,483.650000 726.100000,490.060000 678.930000,488.800000 678.930000,483.650000 726.100000,483.650000" opacity="0.1" fill="rgb(0,0,0)" stroke="none" stroke-width="1"/><path id="ei39CYP8Kyw37" d="M867.690000,485.270000L867.690000,658.570000C867.662628,660.759588,865.879759,662.520171,863.690000,662.520000L863.690000,662.520000L672,657.420000C669.868885,657.340176,668.175163,655.602461,668.150000,653.470000L668.150000,485.270000C668.176963,483.099742,669.929742,481.346963,672.100000,481.320000L863.700000,481.320000C865.885863,481.325294,867.662683,483.084301,867.690000,485.270000Z" transform="matrix(1 0 0 1 -79.34000000000000 -172.91000000000000)" fill="rgb(101,97,125)" stroke="none" stroke-width="1"/><path id="ei39CYP8Kyw38" d="M867.690000,485.270000L867.690000,658.570000C867.662628,660.759588,865.879759,662.520171,863.690000,662.520000L863.690000,662.520000L863.690000,481.320000L863.690000,481.320000C865.879759,481.319829,867.662628,483.080412,867.690000,485.270000Z" transform="matrix(1 0 0 1 -79.34000000000000 -172.91000000000000)" opacity="0.1" fill="rgb(0,0,0)" stroke="none" stroke-width="1"/><polygon id="ei39CYP8Kyw39" points="775.600000,319.150000 598.100000,319.150000 598.100000,467.400000 775.600000,471.400000 775.600000,319.150000" fill="rgb(212,223,236)" stroke="none" stroke-width="1"/><path id="ei39CYP8Kyw40" d="M663.190000,485.270000L663.190000,653.470000C663.164837,655.602461,661.471115,657.340176,659.340000,657.420000L467.690000,662.520000L467.690000,662.520000C465.500241,662.520171,463.717372,660.759588,463.690000,658.570000L463.690000,485.270000C463.716963,483.099742,465.469742,481.346963,467.640000,481.320000L659.240000,481.320000C661.410258,481.346963,663.163037,483.099742,663.190000,485.270000Z" transform="matrix(1 0 0 1 -79.34000000000000 -172.91000000000000)" fill="rgb(101,97,125)" stroke="none" stroke-width="1"/><polygon id="ei39CYP8Kyw41" points="397.100000,319.150000 574.600000,319.150000 574.600000,467.400000 397.100000,471.400000 397.100000,319.150000" fill="rgb(212,223,236)" stroke="none" stroke-width="1"/><polygon id="ei39CYP8Kyw42" points="863.100000,533.650000 863.100000,546.650000 711.180000,548.050000 709.560000,548.080000 651.820000,548.610000 650.440000,548.630000 632.890000,548.780000 632.370000,548.780000 525.390000,549.770000 349.780000,551.400000 349.630000,551.400000 304.980000,551.820000 304.500000,551.830000 106.100000,553.650000 106.100000,538.650000 308.610000,537.320000 309.090000,537.320000 350.080000,537.040000 350.270000,537.040000 633.350000,535.170000 633.640000,535.170000 633.810000,535.160000 634.280000,535.160000 639.070000,535.130000 640.530000,535.130000 715.020000,534.630000 719.420000,534.610000 720.400000,534.600000 863.100000,533.650000" opacity="0.1" fill="rgb(0,0,0)" stroke="none" stroke-width="1"/><circle id="ei39CYP8Kyw43" r="51.330000" transform="matrix(1 0 0 1 487.25999999999999 272.16000000000003)" fill="rgb(251,190,190)" stroke="none" stroke-width="1"/><path id="ei39CYP8Kyw44" d="M383.740000,725.090000C383.740000,724.980000,383.800000,724.860000,383.840000,724.740000C384.840000,721.150000,386.620000,715.080000,387.950000,710.230000C388.120000,709.630000,388.280000,709.040000,388.430000,708.480000C389.900000,703.010000,392.760000,690.200000,394.350000,682.210000C394.910000,679.400000,395.350000,677.210000,395.440000,676.110000C395.640000,674.420000,398.650000,667.190000,402.060000,658.880000C404.450000,653.040000,407.060000,646.660000,408.970000,641.280000C410.220289,638.084342,411.200390,634.789464,411.900000,631.430000C412.049917,630.727914,412.049917,630.002086,411.900000,629.300000C411.599787,628.156890,411.438622,626.981728,411.420000,625.800000L411.420000,625.800000C411.190000,619.600000,413.040000,609.800000,415.900000,605.690000C419.400000,600.690000,421.900000,582.030000,421.900000,582.030000C421.900000,582.030000,427.080000,582.780000,427.900000,578.500000C427.986650,578.038679,428.020202,577.568954,428,577.100000C427.997885,576.728266,427.967800,576.357219,427.910000,575.990000C427.020000,569.750000,442.630000,563.110000,451.410000,561.680000C452.401370,561.510102,453.404312,561.416494,454.410000,561.400000C456.542770,561.167794,458.640642,560.684445,460.660000,559.960000Q462.060000,559.530000,463.660000,558.960000C467.340000,557.720000,471.740000,556.080000,476.410000,554.280000C493.970000,547.470000,515.230000,538.280000,515.230000,538.280000C515.380000,537.570000,515.550000,536.890000,515.740000,536.220000C517.869996,527.669212,523.940055,520.641308,532.090000,517.290000L532.090000,517.290000C532.090000,516.630000,532.090000,515.960000,532.090000,515.290000C532.090000,511.840000,531.940000,508.290000,531.790000,504.750000C531.790000,504.060000,531.730000,503.370000,531.690000,502.680000C531.690000,502.480000,531.690000,502.270000,531.690000,502.070000C531.690000,501.870000,531.690000,501.720000,531.690000,501.550000C531.690000,500.850000,531.620000,500.150000,531.580000,499.460000L531.400000,499.320000C529.863685,498.159622,528.543554,496.737942,527.500000,495.120000C526.919070,494.174565,526.442924,493.168624,526.080000,492.120000C524.830000,488.730000,524.540000,484.950000,523.700000,481.370000L523.520000,480.630000C522.425890,477.017468,521.089528,473.482790,519.520000,470.050000C517.310000,464.630000,515.610000,459.050000,513.920000,453.400000Q512.380000,448.270000,510.810000,443.120000L509.230000,437.880000C508.930000,436.880000,508.630000,435.880000,508.400000,434.880000L508.400000,434.880000C508.288340,434.418323,508.201548,433.950984,508.140000,433.480000C507.859370,431.945646,507.941559,430.366919,508.380000,428.870000C508.768611,427.848168,509.209186,426.846862,509.700000,425.870000C509.909292,425.426580,510.076687,424.964572,510.200000,424.490000L510.200000,424.490000C510.232515,424.384881,510.259222,424.278053,510.280000,424.170000C510.351247,423.814365,510.388084,423.452696,510.390000,423.090000C510.355387,421.778539,510.181068,420.474505,509.870000,419.200000C509.863845,419.183902,509.863845,419.166098,509.870000,419.150000C509.858176,419.059170,509.841485,418.969041,509.820000,418.880000C509.640761,417.888002,509.520550,416.886241,509.460000,415.880000C509.108205,410.465287,510.312206,405.062897,512.930000,400.310000L513.120000,399.950000C513.671348,398.983766,514.286024,398.055071,514.960000,397.170000L514.960000,397.170000C515.270000,396.750000,515.590000,396.350000,515.960000,395.950000C514.560000,397.290000,512.260000,396.700000,510.960000,395.260000C510.745095,395.034761,510.560228,394.782669,510.410000,394.510000C510.323459,394.365256,510.246623,394.214925,510.180000,394.060000C510.130000,393.940000,510.090000,393.810000,510.050000,393.680000C509.350000,391.230000,510.570000,388.620000,512.170000,386.630000C513.746161,384.691637,515.698791,383.092793,517.910000,381.930000L517.910000,381.930000C518.039096,381.852211,518.172661,381.782089,518.310000,381.720000C519.159068,381.294037,520.042116,380.939479,520.950000,380.660000L520.950000,380.660000C521.484678,380.482969,522.028866,380.336071,522.580000,380.220000L518.870000,379.880000L517.370000,379.740000C518.897469,373.680598,524.137481,369.283019,530.370000,368.830000L531.450000,368.830000C531.975655,368.838102,532.500171,368.881533,533.020000,368.960000C531.317276,368.213788,530.259723,366.485786,530.370000,364.630000C532.988489,366.679836,536.235353,367.760946,539.560000,367.690000L539.940000,367.690000C539.766982,366.607034,539.653478,365.515395,539.600000,364.420000L539.600000,364.420000C539.499999,362.935015,539.499999,361.444985,539.600000,359.960000C541.413790,361.680227,543.896832,362.507908,546.380000,362.220000L544.300000,359.320000C546.153729,360.798958,548.494005,361.530294,550.860000,361.370000L551.340000,361.320000C551.742570,361.277883,552.140729,361.200928,552.530000,361.090000L552.620000,361.090000C552.430000,360.850000,552.260000,360.600000,552.090000,360.340000L552.030000,360.220000C551.614110,359.565928,551.278367,358.864226,551.030000,358.130000C550.930213,357.845825,550.850025,357.555144,550.790000,357.260000L550.790000,357.260000C550.353881,355.441912,550.511586,353.531933,551.240000,351.810000C554.470000,354.510000,558.010000,358.200000,562.240000,355.410000C566.470000,352.620000,566.610000,347.500000,573.240000,348.020000C576.950990,348.370091,580.175490,350.716576,581.650000,354.140000C583.567350,351.973074,586.652508,351.269159,589.320000,352.390000C591.942180,353.632981,593.496632,356.393334,593.200000,359.280000C595.950000,358.590000,598.910000,357.910000,601.550000,358.950000C604.190000,359.990000,605.890000,363.360000,604.390000,365.610000C604.349120,365.680536,604.302282,365.747446,604.250000,365.810000C603.020000,367.400000,600.300000,368.270000,600.590000,370.270000L601.010000,370.570000L602.310000,371.510000Q609.960000,377.030000,617.210000,383.110000C619.690000,385.190000,622.330000,387.690000,622.500000,390.940000C622.529811,391.737292,622.449043,392.534871,622.260000,393.310000L622.260000,393.310000C622.100000,394.090000,621.880000,394.870000,621.710000,395.650000C621.282272,397.636652,621.167556,399.677933,621.370000,401.700000L621.370000,401.700000C621.440000,402.290000,621.530000,402.870000,621.640000,403.460000C623.170000,411.190000,629.350000,417.570000,629.960000,425.460000L629.960000,426.020000C629.996796,426.863925,629.973404,427.709400,629.890000,428.550000C629.430000,433.350000,627.210000,437.960000,625.410000,442.550000C625.300000,442.830000,625.190000,443.110000,625.090000,443.390000C621.620000,452.390000,619.620000,461.980000,618.090000,471.550000C617.596419,474.945339,616.928874,478.313104,616.090000,481.640000C615.177674,485.447487,613.440055,489.008069,611,492.070000C610.024980,493.221405,608.894078,494.231140,607.640000,495.070000C606.795943,495.610365,605.909746,496.081888,604.990000,496.480000C604.070254,496.878112,604.990000,496.480000,604.990000,496.540000C605.100000,497.150000,605.190000,497.760000,605.300000,498.370000C605.360000,498.690000,605.410000,499.010000,605.470000,499.370000L605.470000,499.370000C605.465664,499.389765,605.465664,499.410235,605.470000,499.430000C606.310000,504.160000,607.270000,508.790000,608.280000,513.190000L608.790000,515.380000C621.390000,519.930000,622.880000,529.250000,622.970000,532.820000C623.005403,533.296009,623.005403,533.773991,622.970000,534.250000C622.934597,534.726009,641.970000,534.750000,649.470000,540.250000C650.871683,541.201495,652.386749,541.974145,653.980000,542.550000C657.004415,543.692667,660.093012,544.657645,663.230000,545.440000C664.840000,545.860000,666.520000,546.270000,668.230000,546.670000C671.230000,547.360000,674.410000,548.030000,677.480000,548.670000C685.670000,550.320000,693.380000,551.670000,697.290000,552.670000C706.620000,555.030000,727.960000,575.490000,727.960000,575.490000C727.960000,575.490000,730.460000,596.130000,732.960000,599.140000C735.460000,602.150000,739.960000,612.730000,739.960000,612.730000L756.500000,642.140000L763.500000,654.510000L768,654.510000C768.620000,654.510000,769.840000,655.390000,771.210000,656.610000C772.400000,657.670000,773.720000,658.990000,774.880000,660.190000L776.800000,662.240000L778,663.570000C778,663.570000,785.270000,663.750000,787.240000,669.500000C793.160000,669.330000,800.430000,669.720000,805.520000,672C806.214568,672.305747,806.883395,672.666914,807.520000,673.080000C809.630808,674.302541,811.129786,676.356831,811.650000,678.740000C811.751727,679.213858,811.811955,679.695682,811.830000,680.180000C811.830000,680.750000,811.830000,681.320000,811.830000,681.880000C811.470000,689.450000,806.540000,695.750000,802.010000,699.990000L802.330000,700.560000C802.330000,700.560000,802.180000,700.920000,801.890000,701.560000C801.810000,701.750000,801.710000,701.960000,801.600000,702.200000L801.600000,702.200000C801.010000,703.460000,800.070000,705.350000,798.840000,707.560000C796.230079,712.343561,793.013492,716.770150,789.270000,720.730000L788.980000,721.030000L731.240000,721.560000L731.070000,721.360000L719.870000,708L714.300000,701.360000L714.130000,701.150000L713.970000,702.740000L713.430000,708.040000L712.130000,720.850000L712.060000,721.490000L712.060000,721.660000L711.910000,723.140000L712.020000,721.660000L711.730000,721.660000L604.730000,722.660000L429.110000,724.600000L429.110000,725.440000L428.970000,725.440000L428.970000,724.600000L384.220000,725.080000Z" transform="matrix(1 0 0 1 -79.34000000000000 -172.91000000000000)" fill="url(#ei39CYP8Kyw44-fill)" stroke="none" stroke-width="1"/><path id="ei39CYP8Kyw45" d="M617.940000,550.070000C617.940000,550.070000,518.440000,562.070000,527.940000,550.070000C531.380000,545.730000,532.330000,532.870000,532.140000,518.220000C532.080000,513.770000,531.920000,509.160000,531.690000,504.570000C530.590000,482.570000,527.940000,461.070000,527.940000,461.070000C527.940000,461.070000,614.940000,420.070000,604.940000,452.570000C600.940000,465.700000,602.250000,484.140000,605.290000,501.450000C606.180000,506.500000,607.210000,511.450000,608.290000,516.150000C610.925742,527.613928,614.146624,538.935411,617.940000,550.070000Z" transform="matrix(1 0 0 1 -79.34000000000000 -172.91000000000000)" fill="rgb(251,190,190)" stroke="none" stroke-width="1"/><path id="ei39CYP8Kyw46" d="M617.940000,550.070000C617.940000,550.070000,518.440000,562.070000,527.940000,550.070000C531.380000,545.730000,532.330000,532.870000,532.140000,518.220000C547.310000,511.740000,566.610000,516.570000,566.610000,516.570000C586.930000,512.520000,599.960000,513.310000,608.290000,516.150000C610.925742,527.613928,614.146624,538.935411,617.940000,550.070000Z" transform="matrix(1 0 0 1 -79.34000000000000 -172.91000000000000)" opacity="0.1" fill="rgb(0,0,0)" stroke="none" stroke-width="1"/><path id="ei39CYP8Kyw47" d="M429.080000,725.440000L429.080000,724.600000L604.700000,722.690000L711.700000,721.690000L712,721.690000L711.890000,723.170000L712.040000,721.690000L712.230000,721.690000L712.230000,721.520000L713.600000,708.070000L714.120000,702.980000L714.280000,701.390000L714.420000,700.060000L720.600000,679.450000L726.780000,658.870000L731.980000,641.540000L739.920000,615.060000C739.920000,615.060000,735.420000,604.560000,732.920000,601.560000C730.420000,598.560000,727.920000,578.060000,727.920000,578.060000C727.920000,578.060000,706.580000,557.730000,697.250000,555.390000C693.340000,554.390000,685.620000,553.060000,677.420000,551.390000C674.350000,550.770000,671.200000,550.110000,668.170000,549.390000C666.460000,549,664.780000,548.590000,663.170000,548.180000C660.036470,547.397312,656.948454,546.442531,653.920000,545.320000C652.332174,544.743153,650.820935,543.974100,649.420000,543.030000C642.070000,537.640000,623.650000,537.030000,622.940000,537.030000L622.940000,537.030000C622.938052,537.006707,622.938052,536.983293,622.940000,536.960000L622.940000,536.870000C622.965814,536.450397,622.965814,536.029603,622.940000,535.610000C622.940000,535.210000,622.940000,534.740000,622.850000,534.210000C622.850000,534.050000,622.850000,533.880000,622.780000,533.710000C622.730000,533.350000,622.670000,532.970000,622.580000,532.570000C622.549637,532.391289,622.509578,532.214361,622.460000,532.040000C622.170207,530.835053,621.751110,529.664933,621.210000,528.550000C621.140000,528.390000,621.050000,528.220000,620.970000,528.060000C620.479734,527.136244,619.910974,526.256339,619.270000,525.430000C619.140000,525.260000,619,525.080000,618.850000,524.910000C618.030848,523.944103,617.119913,523.059961,616.130000,522.270000C615.860000,522.060000,615.580000,521.840000,615.290000,521.640000C615.128220,521.508759,614.957839,521.388491,614.780000,521.280000L613.890000,520.700000L613.060000,520.220000C612.330000,519.820000,611.560000,519.430000,610.720000,519.060000C610.460000,518.940000,610.180000,518.830000,609.900000,518.720000C609.620000,518.610000,609.180000,518.440000,608.810000,518.300000L608.750000,518.300000L608,518C607.430000,517.810000,606.850000,517.640000,606.240000,517.470000L605.310000,517.230000L604.310000,517L603.310000,516.790000C602.310000,516.590000,601.240000,516.410000,600.120000,516.270000L598.980000,516.130000L597.810000,516.010000L596.600000,515.910000L594.880000,515.810000L592.880000,515.740000C584.059267,515.739181,575.263349,516.674418,566.640000,518.530000C560.649356,517.196952,554.513309,516.632409,548.380000,516.850000L547.510000,516.850000L546.510000,516.910000L545.870000,516.910000L544.580000,517.030000C544.150000,517.030000,543.710000,517.120000,543.280000,517.180000C542.850000,517.240000,542.400000,517.290000,541.970000,517.360000L541.310000,517.470000C540.660000,517.580000,540,517.700000,539.310000,517.840000Q538.980000,517.900000,538.650000,517.990000C537.780000,518.180000,536.910000,518.410000,536.050000,518.670000C535.620000,518.790000,535.190000,518.930000,534.760000,519.080000C534.540000,519.140000,534.330000,519.220000,534.120000,519.300000L533.480000,519.530000L532.850000,519.780000L532.100000,520.080000C531.720000,520.240000,531.350000,520.410000,530.980000,520.590000C530.770000,520.680000,530.560000,520.780000,530.360000,520.890000C530.160000,521,529.950000,521.090000,529.760000,521.200000C527.498940,522.368320,525.409352,523.842136,523.550000,525.580000L523.040000,526.070000L522.540000,526.580000C522.370000,526.750000,522.210000,526.930000,522.050000,527.110000C521.398292,527.822420,520.790504,528.573807,520.230000,529.360000C520.070000,529.570000,519.920000,529.780000,519.770000,530C519.135389,530.935915,518.560898,531.911214,518.050000,532.920000C517.920000,533.160000,517.800000,533.410000,517.680000,533.650000C516.863959,535.339385,516.194824,537.095866,515.680000,538.900000Q515.400000,539.900000,515.170000,540.900000C515.170000,540.900000,494,550.240000,476.440000,557C471.770000,558.800000,467.370000,560.430000,463.690000,561.660000C462.620000,562.020000,461.620000,562.350000,460.690000,562.660000C458.672096,563.389389,456.573626,563.872877,454.440000,564.100000C453.434312,564.116494,452.431370,564.210102,451.440000,564.380000C443.370000,565.690000,429.540000,571.380000,428.030000,577.090000C427.907403,577.545971,427.873456,578.021233,427.930000,578.490000C427.986544,578.958767,427.930000,578.560000,427.930000,578.600000C428.930000,585.600000,421.930000,584.600000,421.930000,584.600000C421.930000,584.600000,419.430000,603.100000,415.930000,608.100000C413.400000,611.700000,411.670000,619.730000,411.450000,625.790000L411.450000,625.790000C411.324268,627.678066,411.472471,629.574391,411.890000,631.420000C411.890000,631.470000,411.890000,631.520000,411.890000,631.560000C412.290000,632.900000,411.330000,636.560000,409.700000,641.250000C407.930000,646.400000,405.350000,652.800000,402.870000,658.840000C399.130000,667.960000,395.610000,676.240000,395.390000,678.060000C395.300000,678.870000,395.040000,680.320000,394.680000,682.190000C393.220000,689.810000,389.980000,704.320000,388.380000,710.190000C387.190000,714.570000,385.460000,720.570000,384.270000,724.690000C384.270000,724.810000,384.200000,724.930000,384.170000,725.040000L429,724.600000L429,725.440000L429.140000,725.440000Z" transform="matrix(1 0 0 1 -79.34000000000000 -172.91000000000000)" fill="rgb(108,99,255)" stroke="none" stroke-width="1"/><path id="ei39CYP8Kyw48" d="M445.440000,607.570000C445.440000,607.570000,502.440000,637.070000,522.940000,633.570000Z" transform="matrix(1 0 0 1 -79.34000000000000 -172.91000000000000)" opacity="0.1" fill="rgb(0,0,0)" stroke="none" stroke-width="1"/><path id="ei39CYP8Kyw49" d="M561.440000,595.570000C561.440000,595.570000,616.940000,613.570000,635.440000,616.070000C653.940000,618.570000,561.440000,595.570000,561.440000,595.570000Z" transform="matrix(1 0 0 1 -79.34000000000000 -172.91000000000000)" opacity="0.1" fill="rgb(0,0,0)" stroke="none" stroke-width="1"/><path id="ei39CYP8Kyw50" d="M623,537.650000C594,542.990000,539.400000,541.840000,515.800000,541.030000C524.450000,510.030000,566.630000,520.570000,566.630000,520.570000C618.840000,510.150000,622.840000,531.770000,623,537.650000Z" transform="matrix(1 0 0 1 -79.34000000000000 -172.91000000000000)" opacity="0.1" fill="rgb(0,0,0)" stroke="none" stroke-width="1"/><path id="ei39CYP8Kyw51" d="M623,535.650000C594,540.990000,539.400000,539.840000,515.800000,539.030000C524.450000,508.030000,566.630000,518.570000,566.630000,518.570000C618.840000,508.150000,622.840000,529.770000,623,535.650000Z" transform="matrix(1 0 0 1 -79.34000000000000 -172.91000000000000)" fill="rgb(108,99,255)" stroke="none" stroke-width="1"/><path id="ei39CYP8Kyw52" d="M776.940000,672.320000C776.940000,672.320000,811.100000,667.070000,811.770000,682.070000C812.440000,697.070000,794.350000,707.550000,794.350000,707.550000Z" transform="matrix(1 0 0 1 -79.34000000000000 -172.91000000000000)" fill="rgb(251,190,190)" stroke="none" stroke-width="1"/><g id="ei39CYP8Kyw53"><path id="ei39CYP8Kyw54" d="M605.290000,501.450000C603.820778,502.106658,602.318800,502.687423,600.790000,503.190000C590.010000,506.910000,579.140000,510.660000,567.790000,512.020000C556.440000,513.380000,544.530000,512.180000,534.630000,506.520000C533.590510,505.932874,532.588573,505.281614,531.630000,504.570000C530.530000,482.570000,527.880000,461.070000,527.880000,461.070000C527.880000,461.070000,614.880000,420.070000,604.880000,452.570000C600.900000,465.700000,602.250000,484.140000,605.290000,501.450000Z" transform="matrix(1 0 0 1 -79.34000000000000 -172.91000000000000)" opacity="0.1" fill="rgb(0,0,0)" stroke="none" stroke-width="1"/><path id="ei39CYP8Kyw55" d="M552.520000,364.840000C549.625951,365.604344,546.540908,364.955446,544.200000,363.090000L546.280000,365.980000C543.798799,366.266342,541.317712,365.442973,539.500000,363.730000C539.311378,366.317093,539.418740,368.917263,539.820000,371.480000C536.378317,371.646000,532.989765,370.582646,530.260000,368.480000C530.150752,370.327721,531.204364,372.047822,532.900000,372.790000C525.748239,371.935654,519.072406,376.518871,517.300000,383.500000L522.520000,383.980000C518.417596,384.856152,514.735645,387.102707,512.080000,390.350000C510.480000,392.350000,509.260000,394.910000,509.960000,397.350000C510.660000,399.790000,514.040000,401.350000,515.880000,399.610000C510.581823,405.933565,508.349061,414.275312,509.780000,422.400000C510.254637,424.110282,510.410566,425.893293,510.240000,427.660000C509.910000,429.310000,508.870000,430.740000,508.350000,432.350000C507.350000,435.270000,508.300000,438.440000,509.190000,441.350000L513.880000,456.770000C515.580000,462.340000,517.270000,467.920000,519.490000,473.310000C521.062036,476.717769,522.398506,480.229342,523.490000,483.820000C524.750000,488.660000,524.800000,493.960000,527.490000,498.190000C529.333583,500.851935,531.797988,503.024593,534.670000,504.520000C544.560000,510.180000,556.510000,511.380000,567.830000,510.020000C579.150000,508.660000,590.010000,504.910000,600.780000,501.190000C603.172575,500.469324,605.469240,499.462015,607.620000,498.190000C615.070000,493.310000,616.730000,483.330000,618.120000,474.540000C619.670000,464.740000,621.740000,454.960000,625.410000,445.740000C627.590000,440.250000,630.410000,434.680000,629.930000,428.800000C629.320000,420.990000,623.140000,414.660000,621.610000,406.980000C621.097821,404.412833,621.121653,401.767523,621.680000,399.210000C622.154494,397.686227,622.420247,396.105166,622.470000,394.510000C622.300000,391.290000,619.660000,388.810000,617.180000,386.740000Q609.110000,380,600.520000,374C600.230000,372,602.950000,371.140000,604.180000,369.560000C605.920000,367.330000,604.120000,363.790000,601.480000,362.750000C598.840000,361.710000,595.880000,362.390000,593.130000,363.080000C593.497928,360.189407,591.923788,357.400337,589.259025,356.221381C586.594263,355.042425,583.471572,355.753504,581.580000,357.970000C580.092466,354.559202,576.865579,352.229098,573.160000,351.890000C566.530000,351.370000,566.400000,356.440000,562.160000,359.230000C557.920000,362.020000,554.420000,358.340000,551.160000,355.660000C549.940895,358.743238,550.459327,362.242655,552.520000,364.840000Z" transform="matrix(0.99999936839590 -0.00112392517448 0.00112392517448 0.99999936839590 -79.34000000000000 -172.91000000000000)" fill="rgb(63,61,86)" stroke="none" stroke-width="1"/></g><path id="ei39CYP8Kyw56" d="M802.270000,702.320000C802.270000,702.320000,801.380000,704.440000,799.740000,707.510000C797.259236,712.233174,794.239059,716.652699,790.740000,720.680000L790.470000,720.970000L788.850000,720.970000L731.110000,721.500000L729.730000,721.500000L729.560000,721.300000L718.360000,708.010000L714.140000,703L713.970000,702.790000L713.610000,702.370000L713.410000,702.130000L713.150000,701.820000L704.940000,692.080000L707.940000,679.580000L713.050000,658.520000L713.180000,658.010000L714.180000,654.010000L714.890000,651.010000L717.270000,641.230000L725.430000,607.580000L739.930000,615.080000L755.220000,642.080000L763.430000,656.580000L767.930000,656.580000C768.780000,656.580000,770.730000,658.220000,772.690000,660.110000C773.390000,660.780000,774.090000,661.490000,774.690000,662.110000C776.470000,663.950000,777.880000,665.530000,777.880000,665.530000C777.880000,665.530000,785.170000,665.690000,787.130000,671.430000C787.231199,671.707770,787.314699,671.991672,787.380000,672.280000C788.030609,674.536198,788.877164,676.731216,789.910000,678.840000C791.200000,681.650000,792.820000,684.840000,794.460000,688.030000C797.510000,693.880000,800.610000,699.450000,801.750000,701.470000L801.890000,701.720000Z" transform="matrix(1 0 0 1 -79.34000000000000 -172.91000000000000)" fill="rgb(108,99,255)" stroke="none" stroke-width="1"/><path id="ei39CYP8Kyw57" d="M716.370000,657.170000L716.270000,658.600000L716.270000,658.700000L716.100000,661L714.770000,679.510000L713.160000,701.810000L712.700000,708.090000L711.700000,721.530000L711.700000,721.700000L604.700000,722.700000L429.110000,724.600000L429.110000,725.440000L428.970000,725.440000L428.970000,724.600000L428.970000,724.320000L429.420000,709.960000L430.280000,681.900000L431.020000,658.110000L431.090000,655.740000C431.178419,652.849025,432.452088,650.121696,434.612064,648.198144C436.772041,646.274592,439.628138,645.324188,442.510000,645.570000C447.230000,645.970000,453.360000,646.460000,460.690000,646.980000L463.690000,647.200000C506.020000,650.140000,584.250000,653.940000,663.190000,649.200000C664.850000,649.110000,666.520000,649.010000,668.190000,648.890000C680.430000,648.120000,692.660000,647.130000,704.770000,645.890000C707.869024,645.565301,710.952718,646.629818,713.191469,648.797160C715.430220,650.964503,716.594104,654.012082,716.370000,657.120000Z" transform="matrix(1 0 0 1 -79.34000000000000 -172.91000000000000)" opacity="0.1" fill="rgb(0,0,0)" stroke="none" stroke-width="1"/><path id="ei39CYP8Kyw58" d="M429.080000,725.440000L429.080000,724.600000L604.700000,722.690000L711.700000,721.690000L712,721.690000L712,721.520000L713,708.080000L713.430000,702.080000L715.070000,679.470000L716.360000,661.570000L716.360000,661.130000C716.419626,660.305192,716.382709,659.476242,716.250000,658.660000C716.255595,658.626901,716.255595,658.593099,716.250000,658.560000C715.975293,656.872326,715.288314,655.278534,714.250000,653.920000C712.011435,651.049413,708.450065,649.537154,704.830000,649.920000C692.720000,651.160000,680.490000,652.150000,668.250000,652.920000C666.580000,653.040000,664.910000,653.140000,663.250000,653.230000C584.310000,657.920000,506.080000,654.120000,463.750000,651.230000L460.750000,651.010000C453.420000,650.490000,447.290000,650.010000,442.570000,649.600000C437.191994,649.146187,432.340129,652.828252,431.330000,658.130000C431.229031,658.671390,431.168861,659.219598,431.150000,659.770000L430.470000,681.930000L429.540000,710L429.100000,724.360000L429.100000,724.640000L429.100000,725.480000Z" transform="matrix(1 0 0 1 -79.34000000000000 -172.91000000000000)" fill="rgb(63,61,86)" stroke="none" stroke-width="1"/><path id="ei39CYP8Kyw59" d="M716.670000,664.180000L715.440000,679.510000L713.610000,702.360000L713.150000,708.080000L712.150000,720.890000L712.090000,721.530000L712.090000,721.700000L712.090000,721.700000L711.940000,723.180000L712.050000,721.700000L711.760000,721.700000L604.760000,722.700000L429.110000,724.600000L429.110000,724.320000L429.600000,709.960000L430.600000,681.900000L431.240000,663.250000C431.303941,661.094384,432.455877,659.118024,434.300000,658C435.432371,657.305996,436.756380,656.990756,438.080000,657.100000C440.180000,657.270000,442.760000,657.470000,445.770000,657.690000C450.660000,658.050000,456.690000,658.470000,463.710000,658.910000C476.710000,659.730000,493.020000,660.610000,511.710000,661.330000C563.710000,663.330000,633.910000,664,700.590000,658.160000C703.590000,657.900000,706.690000,657.610000,709.720000,657.320000C710.919349,657.200393,712.127727,657.429569,713.200000,657.980000C713.503724,658.131286,713.791786,658.312161,714.060000,658.520000C714.930527,659.150774,715.620186,659.999053,716.060000,660.980000C716.162021,661.175163,716.245713,661.379372,716.310000,661.590000C716.610401,662.418510,716.733060,663.300970,716.670000,664.180000Z" transform="matrix(1 0 0 1 -79.34000000000000 -172.91000000000000)" opacity="0.1" fill="rgb(0,0,0)" stroke="none" stroke-width="1"/><path id="ei39CYP8Kyw60" d="M377.440000,677.870000L377.440000,681.060000C377.441102,683.427620,376.078640,685.584202,373.940000,686.600000L333.840000,687.370000C331.662514,686.371953,330.267434,684.195316,330.270000,681.800000L330.270000,678.800000Z" transform="matrix(1 0 0 1 -79.34000000000000 -172.91000000000000)" opacity="0.1" fill="rgb(0,0,0)" stroke="none" stroke-width="1"/><polygon id="ei39CYP8Kyw61" points="298.600000,515.570000 246.350000,516.570000 246.350000,507.900000 298.600000,506.900000 298.600000,515.570000" fill="rgb(63,61,86)" stroke="none" stroke-width="1"/><polygon id="ei39CYP8Kyw62" points="298.600000,515.570000 246.350000,516.570000 246.350000,507.900000 298.600000,506.900000 298.600000,515.570000" opacity="0.1" fill="rgb(0,0,0)" stroke="none" stroke-width="1"/><polygon id="ei39CYP8Kyw63" points="300.600000,515.570000 248.350000,516.570000 248.350000,507.900000 300.600000,506.900000 300.600000,515.570000" fill="rgb(63,61,86)" stroke="none" stroke-width="1"/><g id="ei39CYP8Kyw64" opacity="0.1"><path id="ei39CYP8Kyw65" d="M552.930000,361.560000C551.953051,360.290554,551.303921,358.799958,551.040000,357.220000C550.799003,358.764522,550.943276,360.344661,551.460000,361.820000C551.956355,361.774191,552.448046,361.687225,552.930000,361.560000Z" transform="matrix(1 0 0 1 -79.34000000000000 -172.91000000000000)" fill="rgb(0,0,0)" stroke="none" stroke-width="1"/><path id="ei39CYP8Kyw66" d="M540.230000,368.200000C540.041416,366.974066,539.917909,365.739002,539.860000,364.500000C539.860000,365.730000,539.860000,366.970000,539.860000,368.210000Z" transform="matrix(1 0 0 1 -79.34000000000000 -172.91000000000000)" fill="rgb(0,0,0)" stroke="none" stroke-width="1"/><path id="ei39CYP8Kyw67" d="M621.730000,401.570000C621.785350,400.679083,621.905670,399.793395,622.090000,398.920000C622.563011,397.398951,622.832027,395.821844,622.890000,394.230000C622.867571,393.872688,622.814035,393.518012,622.730000,393.170000C622.560000,394.090000,622.290000,395.010000,622.090000,395.920000C621.690586,397.775075,621.569259,399.679234,621.730000,401.570000Z" transform="matrix(1 0 0 1 -79.34000000000000 -172.91000000000000)" fill="rgb(0,0,0)" stroke="none" stroke-width="1"/><path id="ei39CYP8Kyw68" d="M600.930000,370.670000L602.020000,371.460000C602.938942,370.795318,603.798799,370.052562,604.590000,369.240000C605.355765,368.180884,605.500504,366.794441,604.970000,365.600000C604.870391,365.828280,604.742743,366.043268,604.590000,366.240000C603.360000,367.820000,600.640000,368.690000,600.930000,370.670000Z" transform="matrix(1 0 0 1 -79.34000000000000 -172.91000000000000)" fill="rgb(0,0,0)" stroke="none" stroke-width="1"/><path id="ei39CYP8Kyw69" d="M518.760000,380.290000C518.395259,381.019335,518.103829,381.783080,517.890000,382.570000C519.454317,381.696819,521.139231,381.059922,522.890000,380.680000Z" transform="matrix(1 0 0 1 -79.34000000000000 -172.91000000000000)" fill="rgb(0,0,0)" stroke="none" stroke-width="1"/><path id="ei39CYP8Kyw70" d="M532.550000,369.410000C531.893134,369.048125,531.264665,368.636946,530.670000,368.180000C530.644823,368.575606,530.675116,368.972789,530.760000,369.360000C531.357074,369.331534,531.955446,369.348249,532.550000,369.410000Z" transform="matrix(1 0 0 1 -79.34000000000000 -172.91000000000000)" fill="rgb(0,0,0)" stroke="none" stroke-width="1"/><path id="ei39CYP8Kyw71" d="M630.320000,428.330000C629.910000,433.180000,627.650000,437.850000,625.820000,442.450000C622.150000,451.670000,620.080000,461.450000,618.530000,471.260000C617.140000,480.050000,615.530000,490.030000,608.030000,494.900000C605.887015,496.180266,603.592614,497.188056,601.200000,497.900000C590.420000,501.630000,579.550000,505.370000,568.200000,506.730000C556.850000,508.090000,544.940000,506.900000,535.040000,501.240000C532.169586,499.742265,529.705692,497.570058,527.860000,494.910000C525.190000,490.680000,525.140000,485.380000,523.860000,480.540000C522.768551,476.946075,521.432086,473.431173,519.860000,470.020000C517.650000,464.640000,515.950000,459.020000,514.260000,453.490000Q511.910000,445.780000,509.570000,438.060000C509.056212,436.511795,508.674842,434.922752,508.430000,433.310000C508.040000,435.870000,508.800000,438.550000,509.570000,441.060000Q511.910000,448.790000,514.260000,456.490000C515.950000,462.060000,517.650000,467.640000,519.860000,473.020000C521.432086,476.431173,522.768551,479.946075,523.860000,483.540000C525.120000,488.380000,525.170000,493.680000,527.860000,497.910000C529.705692,500.570058,532.169586,502.742265,535.040000,504.240000C544.940000,509.900000,556.880000,511.090000,568.200000,509.730000C579.520000,508.370000,590.380000,504.630000,601.200000,500.900000C603.592614,500.188056,605.887015,499.180266,608.030000,497.900000C615.480000,493.030000,617.140000,483.050000,618.530000,474.260000C620.080000,464.450000,622.150000,454.670000,625.820000,445.450000C628,439.970000,630.820000,434.400000,630.340000,428.510000C630.340000,428.450000,630.320000,428.390000,630.320000,428.330000Z" transform="matrix(1 0 0 1 -79.34000000000000 -172.91000000000000)" fill="rgb(0,0,0)" stroke="none" stroke-width="1"/><path id="ei39CYP8Kyw72" d="M510.630000,424.460000C510.630000,424.460000,510.630000,424.390000,510.630000,424.350000C510.810401,422.586659,510.654303,420.805100,510.170000,419.100000C509.970496,418.002608,509.840239,416.893751,509.780000,415.780000C509.664873,417.894661,509.795750,420.015538,510.170000,422.100000C510.330000,422.880000,510.510000,423.670000,510.630000,424.460000Z" transform="matrix(1 0 0 1 -79.34000000000000 -172.91000000000000)" fill="rgb(0,0,0)" stroke="none" stroke-width="1"/><path id="ei39CYP8Kyw73" d="M513.680000,400C514.449097,398.707952,515.321973,397.480575,516.290000,396.330000C514.460000,398.080000,511.080000,396.520000,510.370000,394.090000C510.108305,395.072879,510.108305,396.107121,510.370000,397.090000C510.871207,398.583688,512.134418,399.694244,513.680000,400Z" transform="matrix(1 0 0 1 -79.34000000000000 -172.91000000000000)" fill="rgb(0,0,0)" stroke="none" stroke-width="1"/></g><path id="ei39CYP8Kyw74" d="M763.440000,656.570000C763.440000,656.570000,766.610000,668.070000,763.440000,678.070000C760.270000,688.070000,763.440000,656.570000,763.440000,656.570000Z" transform="matrix(1 0 0 1 -79.34000000000000 -172.91000000000000)" opacity="0.1" fill="rgb(0,0,0)" stroke="none" stroke-width="1"/><path id="ei39CYP8Kyw75" d="M776.940000,668.300000C776.940000,668.300000,778.270000,682.900000,775.270000,685.490000C772.270000,688.080000,776.940000,668.300000,776.940000,668.300000Z" transform="matrix(1 0 0 1 -79.34000000000000 -172.91000000000000)" opacity="0.1" fill="rgb(0,0,0)" stroke="none" stroke-width="1"/><line id="ei39CYP8Kyw76" x1="198.990000" y1="342.860000" x2="300.600000" y2="341.860000" fill="none" stroke="rgb(108,99,255)" stroke-width="2" stroke-miterlimit="10"/><line id="ei39CYP8Kyw77" x1="198.990000" y1="355.330000" x2="300.600000" y2="354.340000" fill="none" stroke="rgb(108,99,255)" stroke-width="2" stroke-miterlimit="10"/><line id="ei39CYP8Kyw78" x1="198.990000" y1="367.810000" x2="300.600000" y2="366.810000" fill="none" stroke="rgb(108,99,255)" stroke-width="2" stroke-miterlimit="10"/><script><![CDATA[!function(t,n){"object"==typeof exports&&"undefined"!=typeof module?module.exports=n():"function"==typeof define&&define.amd?define(n):(t="undefined"!=typeof globalThis?globalThis:t||self).__SVGATOR_PLAYER__=n()}(this,(function(){"use strict";function t(n){return(t="function"==typeof Symbol&&"symbol"==typeof Symbol.iterator?function(t){return typeof t}:function(t){return t&&"function"==typeof Symbol&&t.constructor===Symbol&&t!==Symbol.prototype?"symbol":typeof t})(n)}function n(t,n){if(!(t instanceof n))throw new TypeError("Cannot call a class as a function")}function e(t,n){for(var e=0;e<n.length;e++){var r=n[e];r.enumerable=r.enumerable||!1,r.configurable=!0,"value"in r&&(r.writable=!0),Object.defineProperty(t,r.key,r)}}function r(t,n,r){return n&&e(t.prototype,n),r&&e(t,r),t}function i(t){return(i=Object.setPrototypeOf?Object.getPrototypeOf:function(t){return t.__proto__||Object.getPrototypeOf(t)})(t)}function u(t,n){return(u=Object.setPrototypeOf||function(t,n){return t.__proto__=n,t})(t,n)}function o(t,n){return!n||"object"!=typeof n&&"function"!=typeof n?function(t){if(void 0===t)throw new ReferenceError("this hasn't been initialised - super() hasn't been called");return t}(t):n}function a(t){var n=function(){if("undefined"==typeof Reflect||!Reflect.construct)return!1;if(Reflect.construct.sham)return!1;if("function"==typeof Proxy)return!0;try{return Boolean.prototype.valueOf.call(Reflect.construct(Boolean,[],(function(){}))),!0}catch(t){return!1}}();return function(){var e,r=i(t);if(n){var u=i(this).constructor;e=Reflect.construct(r,arguments,u)}else e=r.apply(this,arguments);return o(this,e)}}function l(t,n,e){return(l="undefined"!=typeof Reflect&&Reflect.get?Reflect.get:function(t,n,e){var r=function(t,n){for(;!Object.prototype.hasOwnProperty.call(t,n)&&null!==(t=i(t)););return t}(t,n);if(r){var u=Object.getOwnPropertyDescriptor(r,n);return u.get?u.get.call(e):u.value}})(t,n,e||t)}var s=Math.abs;function f(t){return t}function c(t,n,e){var r=1-e;return 3*e*r*(t*r+n*e)+e*e*e}function h(){var t=arguments.length>0&&void 0!==arguments[0]?arguments[0]:0,n=arguments.length>1&&void 0!==arguments[1]?arguments[1]:0,e=arguments.length>2&&void 0!==arguments[2]?arguments[2]:1,r=arguments.length>3&&void 0!==arguments[3]?arguments[3]:1;return t<0||t>1||e<0||e>1?null:s(t-n)<=1e-5&&s(e-r)<=1e-5?f:function(i){if(i<=0)return t>0?i*n/t:0===n&&e>0?i*r/e:0;if(i>=1)return e<1?1+(i-1)*(r-1)/(e-1):1===e&&t<1?1+(i-1)*(n-1)/(t-1):1;for(var u,o=0,a=1;o<a;){var l=c(t,e,u=(o+a)/2);if(s(i-l)<1e-5)break;l<i?o=u:a=u}return c(n,r,u)}}function v(){return 1}function d(t){return 1===t?1:0}function y(){var t=arguments.length>0&&void 0!==arguments[0]?arguments[0]:1,n=arguments.length>1&&void 0!==arguments[1]?arguments[1]:0;if(1===t){if(0===n)return d;if(1===n)return v}var e=1/t;return function(t){return t>=1?1:(t+=n*e)-t%e}}function g(t){var n=arguments.length>1&&void 0!==arguments[1]?arguments[1]:2;if(Number.isInteger(t))return t;var e=Math.pow(10,n);return Math.round(t*e)/e}var p=Math.PI/180;function m(t,n,e){return t>=.5?e:n}function b(t,n,e){return 0===t||n===e?n:t*(e-n)+n}function w(t,n,e){var r=b(t,n,e);return r<=0?0:r}function x(t,n,e){return 0===t?n:1===t?e:{x:b(t,n.x,e.x),y:b(t,n.y,e.y)}}function A(t,n,e){return 0===t?n:1===t?e:{x:w(t,n.x,e.x),y:w(t,n.y,e.y)}}function k(t,n,e){var r=function(t,n,e){return Math.round(b(t,n,e))}(t,n,e);return r<=0?0:r>=255?255:r}function _(t,n,e){return 0===t?n:1===t?e:{r:k(t,n.r,e.r),g:k(t,n.g,e.g),b:k(t,n.b,e.b),a:b(t,null==n.a?1:n.a,null==e.a?1:e.a)}}function S(t,n,e){if(0===t)return n;if(1===t)return e;var r=n.length;if(r!==e.length)return m(t,n,e);for(var i=[],u=0;u<r;u++)i.push(_(t,n[u],e[u]));return i}function M(t,n,e){var r=n.length;if(r!==e.length)return m(t,n,e);for(var i=new Array(r),u=0;u<r;u++)i[u]=b(t,n[u],e[u]);return i}function O(t,n){for(var e=[],r=0;r<t;r++)e.push(n);return e}function E(t,n){if(--n<=0)return t;var e=(t=Object.assign([],t)).length;do{for(var r=0;r<e;r++)t.push(t[r])}while(--n>0);return t}var B,I=function(){function t(e){n(this,t),this.list=e,this.length=e.length}return r(t,[{key:"setAttribute",value:function(t,n){for(var e=this.list,r=0;r<this.length;r++)e[r].setAttribute(t,n)}},{key:"removeAttribute",value:function(t){for(var n=this.list,e=0;e<this.length;e++)n[e].removeAttribute(t)}},{key:"style",value:function(t,n){for(var e=this.list,r=0;r<this.length;r++)e[r].style[t]=n}}]),t}(),j=/-./g,P=function(t,n){return n.toUpperCase()};function T(t){return"function"==typeof t?t:m}function F(t){return t?"function"==typeof t?t:Array.isArray(t)?function(t){var n=arguments.length>1&&void 0!==arguments[1]?arguments[1]:f;if(!Array.isArray(t))return n;switch(t.length){case 1:return y(t[0])||n;case 2:return y(t[0],t[1])||n;case 4:return h(t[0],t[1],t[2],t[3])||n}return n}(t,null):function(t,n){var e=arguments.length>2&&void 0!==arguments[2]?arguments[2]:f;switch(t){case"linear":return f;case"steps":return y(n.steps||1,n.jump||0)||e;case"bezier":case"cubic-bezier":return h(n.x1||0,n.y1||0,n.x2||0,n.y2||0)||e}return e}(t.type,t.value,null):null}function R(t,n,e){var r=arguments.length>3&&void 0!==arguments[3]&&arguments[3],i=n.length-1;if(t<=n[0].t)return r?[0,0,n[0].v]:n[0].v;if(t>=n[i].t)return r?[i,1,n[i].v]:n[i].v;var u,o=n[0],a=null;for(u=1;u<=i;u++){if(!(t>n[u].t)){a=n[u];break}o=n[u]}return null==a?r?[i,1,n[i].v]:n[i].v:o.t===a.t?r?[u,1,a.v]:a.v:(t=(t-o.t)/(a.t-o.t),o.e&&(t=o.e(t)),r?[u,t,e(t,o.v,a.v)]:e(t,o.v,a.v))}function C(t,n){var e=arguments.length>2&&void 0!==arguments[2]?arguments[2]:null;return t&&t.length?"function"!=typeof n?null:("function"!=typeof e&&(e=null),function(r){var i=R(r,t,n);return null!=i&&e&&(i=e(i)),i}):null}function N(t,n){return t.t-n.t}function q(n,e,r,i,u){var o,a="@"===r[0],l="#"===r[0],s=B[r],f=m;switch(a?(o=r.substr(1),r=o.replace(j,P)):l&&(r=r.substr(1)),t(s)){case"function":if(f=s(i,u,R,F,r,a,e,n),l)return f;break;case"string":f=C(i,T(s));break;case"object":if((f=C(i,T(s.i),s.f))&&"function"==typeof s.u)return s.u(e,f,r,a,n)}return f?function(t,n,e){var r=arguments.length>3&&void 0!==arguments[3]&&arguments[3];if(r)return t instanceof I?function(r){return t.style(n,e(r))}:function(r){return t.style[n]=e(r)};if(Array.isArray(n)){var i=n.length;return function(r){var u=e(r);if(null==u)for(var o=0;o<i;o++)t[o].removeAttribute(n);else for(var a=0;a<i;a++)t[a].setAttribute(n,u)}}return function(r){var i=e(r);null==i?t.removeAttribute(n):t.setAttribute(n,i)}}(e,r,f,a):null}function V(n,e,r,i){if(!i||"object"!==t(i))return null;var u=null,o=null;return Array.isArray(i)?o=function(t){if(!t||!t.length)return null;for(var n=0;n<t.length;n++)t[n].e&&(t[n].e=F(t[n].e));return t.sort(N)}(i):(o=i.keys,u=i.data||null),o?q(n,e,r,o,u):null}function L(t,n,e){if(!e)return null;var r=[];for(var i in e)if(e.hasOwnProperty(i)){var u=V(t,n,i,e[i]);u&&r.push(u)}return r.length?r:null}function z(t,n){if(!n.duration||n.duration<0)return null;var e=function(t,n){if(!n)return null;var e=[];if(Array.isArray(n))for(var r=n.length,i=0;i<r;i++){var u=n[i];if(2===u.length){var o=null;if("string"==typeof u[0])o=t.getElementById(u[0]);else if(Array.isArray(u[0])){o=[];for(var a=0;a<u[0].length;a++)if("string"==typeof u[0][a]){var l=t.getElementById(u[0][a]);l&&o.push(l)}o=o.length?1===o.length?o[0]:new I(o):null}if(o){var s=L(t,o,u[1]);s&&(e=e.concat(s))}}}else for(var f in n)if(n.hasOwnProperty(f)){var c=t.getElementById(f);if(c){var h=L(t,c,n[f]);h&&(e=e.concat(h))}}return e.length?e:null}(t,n.elements);return e?function(t,n){var e=arguments.length>2&&void 0!==arguments[2]?arguments[2]:1/0,r=arguments.length>3&&void 0!==arguments[3]?arguments[3]:1,i=arguments.length>4&&void 0!==arguments[4]&&arguments[4],u=arguments.length>5&&void 0!==arguments[5]?arguments[5]:1,o=t.length,a=r>0?n:0;i&&e%2==0&&(a=n-a);var l=null;return function(s,f){var c=s%n,h=1+(s-c)/n;f*=r,i&&h%2==0&&(f=-f);var v=!1;if(h>e)c=a,v=!0,-1===u&&(c=r>0?0:n);else if(f<0&&(c=n-c),c===l)return!1;l=c;for(var d=0;d<o;d++)t[d](c);return v}}(e,n.duration,n.iterations||1/0,n.direction||1,!!n.alternate,n.fill||1):null}var D=function(){function t(e,r){var i=arguments.length>2&&void 0!==arguments[2]?arguments[2]:{};n(this,t),this._id=0,this._running=!1,this._rollingBack=!1,this._animations=e,this.duration=r.duration,this.alternate=r.alternate,this.fill=r.fill,this.iterations=r.iterations,this.direction=i.direction||1,this.speed=i.speed||1,this.fps=i.fps||100,this.offset=i.offset||0,this.rollbackStartOffset=0}return r(t,[{key:"_rollback",value:function(){var t=this,n=1/0,e=null;this.rollbackStartOffset=this.offset,this._rollingBack||(this._rollingBack=!0,this._running=!0);this._id=window.requestAnimationFrame((function r(i){if(t._rollingBack){null==e&&(e=i);var u=i-e,o=t.rollbackStartOffset-u,a=Math.round(o*t.speed);if(a>t.duration&&n!=1/0){var l=!!t.alternate&&a/t.duration%2>1,s=a%t.duration;a=(s+=l?t.duration:0)||t.duration}var f=t.fps?1e3/t.fps:0,c=Math.max(0,a);if(c<n-f){t.offset=c,n=c;for(var h=t._animations,v=h.length,d=0;d<v;d++)h[d](c,t.direction)}var y=!1;if(t.iterations>0&&-1===t.fill){var g=t.iterations*t.duration,p=g==a;a=p?0:a,t.offset=p?0:t.offset,y=a>g}a>0&&t.offset>=a&&!y?t._id=window.requestAnimationFrame(r):t.stop()}}))}},{key:"_start",value:function(){var t=this,n=arguments.length>0&&void 0!==arguments[0]?arguments[0]:0,e=-1/0,r=null,i={},u=function u(o){t._running=!0,null==r&&(r=o);var a=Math.round((o-r+n)*t.speed),l=t.fps?1e3/t.fps:0;if(a>e+l&&!t._rollingBack){t.offset=a,e=a;for(var s=t._animations,f=s.length,c=0,h=0;h<f;h++)i[h]?c++:(i[h]=s[h](a,t.direction),i[h]&&c++);if(c===f)return void t._stop()}t._id=window.requestAnimationFrame(u)};this._id=window.requestAnimationFrame(u)}},{key:"_stop",value:function(){this._id&&window.cancelAnimationFrame(this._id),this._running=!1,this._rollingBack=!1}},{key:"play",value:function(){!this._rollingBack&&this._running||(this._rollingBack=!1,this.rollbackStartOffset>this.duration&&(this.offset=this.rollbackStartOffset-(this.rollbackStartOffset-this.offset)%this.duration,this.rollbackStartOffset=0),this._start(this.offset))}},{key:"stop",value:function(){this._stop(),this.offset=0,this.rollbackStartOffset=0;var t=this.direction,n=this._animations;window.requestAnimationFrame((function(){for(var e=0;e<n.length;e++)n[e](0,t)}))}},{key:"reachedToEnd",value:function(){return this.iterations>0&&this.offset>=this.iterations*this.duration}},{key:"restart",value:function(){this._stop(),this.offset=0,this._start()}},{key:"pause",value:function(){this._stop()}},{key:"reverse",value:function(){this.direction=-this.direction}}],[{key:"build",value:function(n,e){return(n=function(t,n){if(B=n,!t||!t.root||!Array.isArray(t.animations))return null;for(var e=document.getElementsByTagName("svg"),r=!1,i=0;i<e.length;i++)if(e[i].id===t.root&&!e[i].svgatorAnimation){(r=e[i]).svgatorAnimation=!0;break}if(!r)return null;var u=t.animations.map((function(t){return z(r,t)})).filter((function(t){return!!t}));return u.length?{element:r,animations:u,animationSettings:t.animationSettings,options:t.options||void 0}:null}(n,e))?{el:n.element,options:n.options||{},player:new t(n.animations,n.animationSettings,n.options)}:null}}]),t}();!function(){for(var t=0,n=["ms","moz","webkit","o"],e=0;e<n.length&&!window.requestAnimationFrame;++e)window.requestAnimationFrame=window[n[e]+"RequestAnimationFrame"],window.cancelAnimationFrame=window[n[e]+"CancelAnimationFrame"]||window[n[e]+"CancelRequestAnimationFrame"];window.requestAnimationFrame||(window.requestAnimationFrame=function(n){var e=Date.now(),r=Math.max(0,16-(e-t)),i=window.setTimeout((function(){n(e+r)}),r);return t=e+r,i},window.cancelAnimationFrame=window.clearTimeout)}();var U=function(t,n){var e=!1,r=null;return function(i){e&&clearTimeout(e),e=setTimeout((function(){return function(){for(var i=0,u=window.innerHeight,o=0,a=window.innerWidth,l=t.parentNode;l instanceof Element;){var s=window.getComputedStyle(l);if("visible"!==s.overflowY||"visible"!==s.overflowX){var f=l.getBoundingClientRect();"visible"!==s.overflowY&&(i=Math.max(i,f.top),u=Math.min(u,f.bottom)),"visible"!==s.overflowX&&(o=Math.max(o,f.left),a=Math.min(a,f.right))}if(l===l.parentNode)break;l=l.parentNode}e=!1;var c=t.getBoundingClientRect(),h=Math.min(c.height,Math.max(0,i-c.top)),v=Math.min(c.height,Math.max(0,c.bottom-u)),d=Math.min(c.width,Math.max(0,o-c.left)),y=Math.min(c.width,Math.max(0,c.right-a)),g=(c.height-h-v)/c.height,p=(c.width-d-y)/c.width,m=Math.round(g*p*100);null!==r&&r===m||(r=m,n(m))}()}),100)}},W=function(){function t(e,r,i){n(this,t),r=Math.max(1,r||1),r=Math.min(r,100),this.el=e,this.onTresholdChange=i&&i.call?i:function(){},this.tresholdPercent=r||1,this.currentVisibility=null,this.visibilityCalculator=U(e,this.onVisibilityUpdate.bind(this)),this.bindScrollWatchers(),this.visibilityCalculator()}return r(t,[{key:"bindScrollWatchers",value:function(){for(var t=this.el.parentNode;t&&(t.addEventListener("scroll",this.visibilityCalculator),t!==t.parentNode&&t!==document);)t=t.parentNode}},{key:"onVisibilityUpdate",value:function(t){var n=this.currentVisibility>=this.tresholdPercent,e=t>=this.tresholdPercent;if(null===this.currentVisibility||n!==e)return this.currentVisibility=t,void this.onTresholdChange(e);this.currentVisibility=t}}]),t}(),Y=/\.0+$/g;function G(t){return Number.isInteger(t)?t+"":t.toFixed(6).replace(Y,"")}function H(t){var n=arguments.length>1&&void 0!==arguments[1]?arguments[1]:" ";return t&&t.length?t.map(G).join(n):""}function Q(t){return G(t.x)+","+G(t.y)}function X(t){return t?null==t.a||t.a>=1?"rgb("+t.r+","+t.g+","+t.b+")":"rgba("+t.r+","+t.g+","+t.b+","+t.a+")":"transparent"}var $={f:null,i:A,u:function(t,n){return function(e){var r=n(e);t.setAttribute("rx",G(r.x)),t.setAttribute("ry",G(r.y))}}},Z={f:null,i:function(t,n,e){return 0===t?n:1===t?e:{width:w(t,n.width,e.width),height:w(t,n.height,e.height)}},u:function(t,n){return function(e){var r=n(e);t.setAttribute("width",G(r.width)),t.setAttribute("height",G(r.height))}}},J=Math.sin,K=Math.cos,tt=Math.acos,nt=Math.asin,et=Math.tan,rt=Math.atan2,it=Math.PI/180,ut=180/Math.PI,ot=Math.sqrt,at=function(){function t(){var e=arguments.length>0&&void 0!==arguments[0]?arguments[0]:1,r=arguments.length>1&&void 0!==arguments[1]?arguments[1]:0,i=arguments.length>2&&void 0!==arguments[2]?arguments[2]:0,u=arguments.length>3&&void 0!==arguments[3]?arguments[3]:1,o=arguments.length>4&&void 0!==arguments[4]?arguments[4]:0,a=arguments.length>5&&void 0!==arguments[5]?arguments[5]:0;n(this,t),this.m=[e,r,i,u,o,a],this.i=null,this.w=null,this.s=null}return r(t,[{key:"determinant",get:function(){var t=this.m;return t[0]*t[3]-t[1]*t[2]}},{key:"isIdentity",get:function(){if(null===this.i){var t=this.m;this.i=1===t[0]&&0===t[1]&&0===t[2]&&1===t[3]&&0===t[4]&&0===t[5]}return this.i}},{key:"point",value:function(t,n){var e=this.m;return{x:e[0]*t+e[2]*n+e[4],y:e[1]*t+e[3]*n+e[5]}}},{key:"translateSelf",value:function(){var t=arguments.length>0&&void 0!==arguments[0]?arguments[0]:0,n=arguments.length>1&&void 0!==arguments[1]?arguments[1]:0;if(!t&&!n)return this;var e=this.m;return e[4]+=e[0]*t+e[2]*n,e[5]+=e[1]*t+e[3]*n,this.w=this.s=this.i=null,this}},{key:"rotateSelf",value:function(){var t=arguments.length>0&&void 0!==arguments[0]?arguments[0]:0;if(t%=360){var n=J(t*=it),e=K(t),r=this.m,i=r[0],u=r[1];r[0]=i*e+r[2]*n,r[1]=u*e+r[3]*n,r[2]=r[2]*e-i*n,r[3]=r[3]*e-u*n,this.w=this.s=this.i=null}return this}},{key:"scaleSelf",value:function(){var t=arguments.length>0&&void 0!==arguments[0]?arguments[0]:1,n=arguments.length>1&&void 0!==arguments[1]?arguments[1]:1;if(1!==t||1!==n){var e=this.m;e[0]*=t,e[1]*=t,e[2]*=n,e[3]*=n,this.w=this.s=this.i=null}return this}},{key:"skewSelf",value:function(t,n){if(n%=360,(t%=360)||n){var e=this.m,r=e[0],i=e[1],u=e[2],o=e[3];t&&(t=et(t*it),e[2]+=r*t,e[3]+=i*t),n&&(n=et(n*it),e[0]+=u*n,e[1]+=o*n),this.w=this.s=this.i=null}return this}},{key:"resetSelf",value:function(){var t=arguments.length>0&&void 0!==arguments[0]?arguments[0]:1,n=arguments.length>1&&void 0!==arguments[1]?arguments[1]:0,e=arguments.length>2&&void 0!==arguments[2]?arguments[2]:0,r=arguments.length>3&&void 0!==arguments[3]?arguments[3]:1,i=arguments.length>4&&void 0!==arguments[4]?arguments[4]:0,u=arguments.length>5&&void 0!==arguments[5]?arguments[5]:0,o=this.m;return o[0]=t,o[1]=n,o[2]=e,o[3]=r,o[4]=i,o[5]=u,this.w=this.s=this.i=null,this}},{key:"recomposeSelf",value:function(){var t=arguments.length>0&&void 0!==arguments[0]?arguments[0]:null,n=arguments.length>1&&void 0!==arguments[1]?arguments[1]:null,e=arguments.length>2&&void 0!==arguments[2]?arguments[2]:null,r=arguments.length>3&&void 0!==arguments[3]?arguments[3]:null,i=arguments.length>4&&void 0!==arguments[4]?arguments[4]:null;return this.isIdentity||this.resetSelf(),t&&(t.x||t.y)&&this.translateSelf(t.x,t.y),n&&this.rotateSelf(n),e&&(e.x&&this.skewSelf(e.x,0),e.y&&this.skewSelf(0,e.y)),!r||1===r.x&&1===r.y||this.scaleSelf(r.x,r.y),i&&(i.x||i.y)&&this.translateSelf(i.x,i.y),this}},{key:"decompose",value:function(){var t=arguments.length>0&&void 0!==arguments[0]?arguments[0]:0,n=arguments.length>1&&void 0!==arguments[1]?arguments[1]:0,e=this.m,r=e[0]*e[0]+e[1]*e[1],i=[[e[0],e[1]],[e[2],e[3]]],u=ot(r);if(0===u)return{origin:{x:e[4],y:e[5]},translate:{x:t,y:n},scale:{x:0,y:0},skew:{x:0,y:0},rotate:0};i[0][0]/=u,i[0][1]/=u;var o=e[0]*e[3]-e[1]*e[2]<0;o&&(u=-u);var a=i[0][0]*i[1][0]+i[0][1]*i[1][1];i[1][0]-=i[0][0]*a,i[1][1]-=i[0][1]*a;var l=ot(i[1][0]*i[1][0]+i[1][1]*i[1][1]);if(0===l)return{origin:{x:e[4],y:e[5]},translate:{x:t,y:n},scale:{x:u,y:0},skew:{x:0,y:0},rotate:0};i[1][0]/=l,i[1][1]/=l,a/=l;var s=0;return i[1][1]<0?(s=tt(i[1][1])*ut,i[0][1]<0&&(s=360-s)):s=nt(i[0][1])*ut,o&&(s=-s),a=rt(a,ot(i[0][0]*i[0][0]+i[0][1]*i[0][1]))*ut,o&&(a=-a),{origin:{x:e[4],y:e[5]},translate:{x:t,y:n},scale:{x:u,y:l},skew:{x:a,y:0},rotate:s}}},{key:"toString",value:function(){return null===this.s&&(this.s="matrix("+this.m.map(st).join(" ")+")"),this.s}}]),t}(),lt=/\.0+$/;function st(t){return Number.isInteger(t)?t:t.toFixed(14).replace(lt,"")}Object.freeze({M:2,L:2,Z:0,H:1,V:1,C:6,Q:4,T:2,S:4,A:7});var ft={},ct=null;function ht(n){var e=function(){if(ct)return ct;if("object"!==("undefined"==typeof document?"undefined":t(document)))return{};var n=document.createElementNS("http://www.w3.org/2000/svg","svg");return n.style.position="absolute",n.style.opacity="0.01",n.style.zIndex="-9999",n.style.left="-9999px",n.style.width="1px",n.style.height="1px",ct={svg:n}}().svg;if(!e)return function(t){return null};var r=document.createElementNS(e.namespaceURI,"path");r.setAttributeNS(null,"d",n),r.setAttributeNS(null,"fill","none"),r.setAttributeNS(null,"stroke","none"),e.appendChild(r);var i=r.getTotalLength();return function(t){var n=r.getPointAtLength(i*t);return{x:n.x,y:n.y}}}function vt(t){return ft[t]?ft[t]:ft[t]=ht(t)}function dt(t,n,e,r){if(!t||!r)return!1;var i=["M",t.x,t.y];if(n&&e&&(i.push("C"),i.push(n.x),i.push(n.y),i.push(e.x),i.push(e.y)),n?!e:e){var u=n||e;i.push("Q"),i.push(u.x),i.push(u.y)}return n||e||i.push("L"),i.push(r.x),i.push(r.y),i.join(" ")}function yt(t,n,e,r){var i=arguments.length>4&&void 0!==arguments[4]?arguments[4]:1,u=dt(t,n,e,r),o=vt(u);try{return o(i)}catch(t){return null}}function gt(t,n,e,r){var i=1-r;return i*i*t+2*i*r*n+r*r*e}function pt(t,n,e,r){return 2*(1-r)*(n-t)+2*r*(e-n)}function mt(t,n,e,r){var i=arguments.length>4&&void 0!==arguments[4]&&arguments[4],u=yt(t,n,null,e,r);return u||(u={x:gt(t.x,n.x,e.x,r),y:gt(t.y,n.y,e.y,r)}),i&&(u.a=bt(t,n,e,r)),u}function bt(t,n,e,r){return Math.atan2(pt(t.y,n.y,e.y,r),pt(t.x,n.x,e.x,r))}function wt(t,n,e,r,i){var u=i*i;return i*u*(r-t+3*(n-e))+3*u*(t+e-2*n)+3*i*(n-t)+t}function xt(t,n,e,r,i){var u=1-i;return 3*(u*u*(n-t)+2*u*i*(e-n)+i*i*(r-e))}function At(t,n,e,r,i){var u=arguments.length>5&&void 0!==arguments[5]&&arguments[5],o=yt(t,n,e,r,i);return o||(o={x:wt(t.x,n.x,e.x,r.x,i),y:wt(t.y,n.y,e.y,r.y,i)}),u&&(o.a=kt(t,n,e,r,i)),o}function kt(t,n,e,r,i){return Math.atan2(xt(t.y,n.y,e.y,r.y,i),xt(t.x,n.x,e.x,r.x,i))}function _t(t,n,e){return t+(n-t)*e}function St(t,n,e){var r=arguments.length>3&&void 0!==arguments[3]&&arguments[3],i={x:_t(t.x,n.x,e),y:_t(t.y,n.y,e)};return r&&(i.a=Mt(t,n)),i}function Mt(t,n){return Math.atan2(n.y-t.y,n.x-t.x)}function Ot(t,n,e){var r=arguments.length>3&&void 0!==arguments[3]&&arguments[3];if(Bt(n)){if(It(e))return mt(n,e.start,e,t,r)}else if(Bt(e)){if(n.end)return mt(n,n.end,e,t,r)}else{if(n.end)return e.start?At(n,n.end,e.start,e,t,r):mt(n,n.end,e,t,r);if(e.start)return mt(n,e.start,e,t,r)}return St(n,e,t,r)}function Et(t,n,e){var r=Ot(t,n,e,!0);return r.a=function(t){var n=arguments.length>1&&void 0!==arguments[1]&&arguments[1];return n?t+Math.PI:t}(r.a)/p,r}function Bt(t){return!t.type||"corner"===t.type}function It(t){return null!=t.start&&!Bt(t)}var jt=new at;var Pt={f:function(t){return t?t.join(" "):""},i:function(n,e,r){if(0===n)return e;if(1===n)return r;var i=e.length;if(i!==r.length)return m(n,e,r);for(var u,o=new Array(i),a=0;a<i;a++){if((u=t(e[a]))!==t(r[a]))return m(n,e,r);if("number"===u)o[a]=b(n,e[a],r[a]);else{if(e[a]!==r[a])return m(n,e,r);o[a]=e[a]}}return o}},Tt={f:null,i:M,u:function(t,n){return function(e){var r=n(e);t.setAttribute("x1",G(r[0])),t.setAttribute("y1",G(r[1])),t.setAttribute("x2",G(r[2])),t.setAttribute("y2",G(r[3]))}}},Ft={f:G,i:b},Rt={f:G,i:function(t,n,e){var r=b(t,n,e);return r<=0?0:r>=1?1:r}},Ct={f:function(t){var n=arguments.length>1&&void 0!==arguments[1]?arguments[1]:" ";return t&&t.length>0&&(t=t.map((function(t){return Math.floor(1e4*t)/1e4}))),H(t,n)},i:function(t,n,e){var r,i,u,o=n.length,a=e.length;if(o!==a)if(0===o)n=O(o=a,0);else if(0===a)a=o,e=O(o,0);else{var l=(u=(r=o)*(i=a)/function(t,n){for(var e;n;)e=n,n=t%n,t=e;return t||1}(r,i))<0?-u:u;n=E(n,Math.floor(l/o)),e=E(e,Math.floor(l/a)),o=a=l}for(var s=[],f=0;f<o;f++)s.push(g(w(t,n[f],e[f]),6));return s}};function Nt(t,n,e,r,i,u,o,a){return n=function(t,n,e){for(var r,i,u,o=t.length-1,a={},l=0;l<=o;l++)(r=t[l]).e&&(r.e=n(r.e)),r.v&&"g"===(i=r.v).t&&i.r&&(u=e.getElementById(i.r))&&(a[i.r]=u.querySelectorAll("stop"));return a}(t,r,a),function(r){var i,u=e(r,t,qt);return u?"c"===u.t?X(u.v):"g"===u.t?(n[u.r]&&function(t,n){for(var e=0,r=t.length;e<r;e++)t[e].setAttribute("stop-color",X(n[e]))}(n[u.r],u.v),(i=u.r)?"url(#"+i+")":"none"):"none":"none"}}function qt(t,n,e){if(0===t)return n;if(1===t)return e;if(n&&e){var r=n.t;if(r===e.t)switch(n.t){case"c":return{t:r,v:_(t,n.v,e.v)};case"g":if(n.r===e.r)return{t:r,v:S(t,n.v,e.v),r:n.r}}}return m(t,n,e)}var Vt={blur:A,brightness:w,contrast:w,"drop-shadow":function(t,n,e){return 0===t?n:1===t?e:{blur:A(t,n.blur,e.blur),offset:x(t,n.offset,e.offset),color:_(t,n.color,e.color)}},grayscale:w,"hue-rotate":b,invert:w,opacity:w,saturate:w,sepia:w};function Lt(t,n,e){if(0===t)return n;if(1===t)return e;var r=n.length;if(r!==e.length)return m(t,n,e);for(var i,u=[],o=0;o<r;o++){if(n[o].type!==e[o].type)return n;if(!(i=Vt[n[o].type]))return m(t,n,e);u.push({type:n.type,value:i(t,n[o].value,e[o].value)})}return u}var zt={blur:function(t){return t?function(n){t.setAttribute("stdDeviation",Q(n))}:null},brightness:function(t,n,e){return(t=Ut(e,n))?function(n){n=G(n),t.map((function(t){return t.setAttribute("slope",n)}))}:null},contrast:function(t,n,e){return(t=Ut(e,n))?function(n){var e=G((1-n)/2);n=G(n),t.map((function(t){t.setAttribute("slope",n),t.setAttribute("intercept",e)}))}:null},"drop-shadow":function(t,n,e){var r=e.getElementById(n+"-blur");if(!r)return null;var i=e.getElementById(n+"-offset");if(!i)return null;var u=e.getElementById(n+"-flood");return u?function(t){r.setAttribute("stdDeviation",Q(t.blur)),i.setAttribute("dx",G(t.offset.x)),i.setAttribute("dy",G(t.offset.y)),u.setAttribute("flood-color",X(t.color))}:null},grayscale:function(t){return t?function(n){t.setAttribute("values",H(function(t){return[.2126+.7874*(t=1-t),.7152-.7152*t,.0722-.0722*t,0,0,.2126-.2126*t,.7152+.2848*t,.0722-.0722*t,0,0,.2126-.2126*t,.7152-.7152*t,.0722+.9278*t,0,0,0,0,0,1,0]}(n)))}:null},"hue-rotate":function(t){return t?function(n){return t.setAttribute("values",G(n))}:null},invert:function(t,n,e){return(t=Ut(e,n))?function(n){n=G(n)+" "+G(1-n),t.map((function(t){return t.setAttribute("tableValues",n)}))}:null},opacity:function(t,n,e){return(t=e.getElementById(n+"-A"))?function(n){return t.setAttribute("tableValues","0 "+G(n))}:null},saturate:function(t){return t?function(n){return t.setAttribute("values",G(n))}:null},sepia:function(t){return t?function(n){return t.setAttribute("values",H(function(t){return[.393+.607*(t=1-t),.769-.769*t,.189-.189*t,0,0,.349-.349*t,.686+.314*t,.168-.168*t,0,0,.272-.272*t,.534-.534*t,.131+.869*t,0,0,0,0,0,1,0]}(n)))}:null}};var Dt=["R","G","B"];function Ut(t,n){var e=Dt.map((function(e){return t.getElementById(n+"-"+e)||null}));return-1!==e.indexOf(null)?null:e}var Wt={fill:Nt,"fill-opacity":Rt,stroke:Nt,"stroke-opacity":Rt,"stroke-width":Ft,"stroke-dashoffset":{f:G,i:b},"stroke-dasharray":Ct,opacity:Rt,transform:function(n,e,r,i){if(!(n=function(n,e){if(!n||"object"!==t(n))return null;var r=!1;for(var i in n)n.hasOwnProperty(i)&&(n[i]&&n[i].length?(n[i].forEach((function(t){t.e&&(t.e=e(t.e))})),r=!0):delete n[i]);return r?n:null}(n,i)))return null;var u=function(t,i,u){var o=arguments.length>3&&void 0!==arguments[3]?arguments[3]:null;return n[t]?r(i,n[t],u):e&&e[t]?e[t]:o};return e&&e.a&&n.o?function(t){var e=r(t,n.o,Et);return jt.recomposeSelf(e,u("r",t,b,0)+e.a,u("k",t,x),u("s",t,x),u("t",t,x)).toString()}:function(t){return jt.recomposeSelf(u("o",t,Ot,null),u("r",t,b,0),u("k",t,x),u("s",t,x),u("t",t,x)).toString()}},"#filter":function(t,n,e,r,i,u,o,a){if(!n.items||!t||!t.length)return null;var l=function(t,n){var e=(t=t.map((function(t){return t&&zt[t[0]]?(n.getElementById(t[1]),zt[t[0]](n.getElementById(t[1]),t[1],n)):null}))).length;return function(n){for(var r=0;r<e;r++)t[r]&&t[r](n[r].value)}}(n.items,a);return l?(t=function(t,n){return t.map((function(t){return t.e=n(t.e),t}))}(t,r),function(n){l(e(n,t,Lt))}):null},"#line":Tt,points:{f:H,i:M},d:Pt,r:Ft,"#size":Z,"#radius":$,_:function(t,n){if(Array.isArray(t))for(var e=0;e<t.length;e++)this[t[e]]=n;else this[t]=n}};return function(t){!function(t,n){if("function"!=typeof n&&null!==n)throw new TypeError("Super expression must either be null or a function");t.prototype=Object.create(n&&n.prototype,{constructor:{value:t,writable:!0,configurable:!0}}),n&&u(t,n)}(o,t);var e=a(o);function o(){return n(this,o),e.apply(this,arguments)}return r(o,null,[{key:"build",value:function(t){var n=l(i(o),"build",this).call(this,t,Wt),e=n.el,r=n.options,u=n.player;return function(t,n,e){if("click"===e.start){return void n.addEventListener("click",(function(){switch(e.click){case"freeze":return!t._running&&t.reachedToEnd()&&(t.offset=0),t._running?t.pause():t.play();case"restart":return t.offset>0?t.restart():t.play();case"reverse":var n=!t._rollingBack&&t._running,r=t.reachedToEnd();return n||r&&1===t.fill?(t.pause(),r&&(t.offset=t.duration-1),t._rollback()):r?t.restart():t.play();case"none":default:return!t._running&&t.offset?t.restart():t.play()}}))}if("hover"===e.start)return n.addEventListener("mouseenter",(function(){return t.reachedToEnd()?t.restart():t.play()})),void n.addEventListener("mouseleave",(function(){switch(e.hover){case"freeze":return t.pause();case"reset":return t.stop();case"reverse":return t.pause(),t._rollback();case"none":default:return}}));if("scroll"===e.start)return void new W(n,e.scroll||25,(function(n){n?t.reachedToEnd()?t.restart():t.play():t.pause()}));t.play()}(u,e,r),u}}]),o}(D)}));
__SVGATOR_PLAYER__.build({"root":"ei39CYP8Kyw1","animations":[{"duration":3000,"direction":1,"iterations":0,"fill":1,"alternate":false,"speed":1,"elements":{"ei39CYP8Kyw53":{"transform":{"data":{"o":{"x":490.097320555,"y":258.92765808,"type":"corner"},"t":{"x":-490.097320555,"y":-258.92765808}},"keys":{"r":[{"t":0,"v":0},{"t":1000,"v":-5.988206223662471},{"t":2000,"v":8.132246550551397},{"t":3000,"v":-0.4858267778481147}]}}}}}],"options":{"start":"load","hover":"freeze","click":"freeze","scroll":25,"font":"embed","exportedIds":"unique","svgFormat":"animated","title":"undraw_programming_2svr"},"animationSettings":{"duration":3000,"direction":1,"iterations":0,"fill":1,"alternate":false,"speed":1}})]]></script></svg>