<svg xmlns="http://www.w3.org/2000/svg" version="1.1" xmlns:xlink="http://www.w3.org/1999/xlink" xmlns:svgjs="http://svgjs.com/svgjs" width="1440" height="560" preserveAspectRatio="none" viewBox="0 0 1440 560"><g mask="url(&quot;#SvgjsMask1000&quot;)" fill="none"><rect width="1440" height="560" x="0" y="0" fill="#0e2a47"></rect><path d="M 0,32 C 57.6,63 172.8,180 288,187 C 403.2,194 460.8,73.4 576,67 C 691.2,60.6 748.8,160.6 864,155 C 979.2,149.4 1036.8,40.8 1152,39 C 1267.2,37.2 1382.4,124.6 1440,146L1440 560L0 560z" fill="#184a7e"></path><path d="M 0,556 C 96,509.4 288,339.8 480,323 C 672,306.2 768,474 960,472 C 1152,470 1344,344.8 1440,313L1440 560L0 560z" fill="#2264ab"></path></g><defs><mask id="SvgjsMask1000"><rect width="1440" height="560" fill="#ffffff"></rect></mask></defs></svg>